<svg xmlns="http://www.w3.org/2000/svg" xmlns:xlink="http://www.w3.org/1999/xlink" id="body_2" preserveAspectRatio="xMinYMin meet" viewBox="0 0 793 1123"><defs><clipPath id="1"><path d="M0 842L0 0L0 0L595 0L595 0L595 842L595 842L0 842z" /></clipPath><clipPath id="2"><path d="M0 842L595 842L595 842L595 0L595 0L0 0z" /></clipPath><clipPath id="3"><path d="M0 788L544.65 788L544.65 788L544.65 0L544.65 0L0 0z" /></clipPath><clipPath id="4"><path d="M48.35 760L429.35 760L429.35 760L429.35 54L429.35 54L48.35 54z" /></clipPath><clipPath id="5"><path d="M50.85 72.5L230.85 72.5L230.85 72.5L230.85 56.5L230.85 56.5L50.85 56.5z" /></clipPath><clipPath id="6"><path d="M231.85 72.5L279.85 72.5L279.85 72.5L279.85 56.5L279.85 56.5L231.85 56.5z" /></clipPath><clipPath id="7"><path d="M280.85 72.5L328.85 72.5L328.85 72.5L328.85 56.5L328.85 56.5L280.85 56.5z" /></clipPath><clipPath id="8"><path d="M329.85 72.5L377.85 72.5L377.85 72.5L377.85 56.5L377.85 56.5L329.85 56.5z" /></clipPath><clipPath id="9"><path d="M50.85 89.5L230.85 89.5L230.85 89.5L230.85 73.5L230.85 73.5L50.85 73.5z" /></clipPath><clipPath id="10"><path d="M280.85 89.5L328.85 89.5L328.85 89.5L328.85 73.5L328.85 73.5L280.85 73.5z" /></clipPath><clipPath id="11"><path d="M329.85 89.5L377.85 89.5L377.85 89.5L377.85 73.5L377.85 73.5L329.85 73.5z" /></clipPath><clipPath id="12"><path d="M378.85 89.5L427.0938 89.5L427.0938 89.5L427.0938 73.5L427.0938 73.5L378.85 73.5z" /></clipPath><clipPath id="13"><path d="M50.85 106.5L230.85 106.5L230.85 106.5L230.85 90.5L230.85 90.5L50.85 90.5z" /></clipPath><clipPath id="14"><path d="M280.85 106.5L328.85 106.5L328.85 106.5L328.85 90.5L328.85 90.5L280.85 90.5z" /></clipPath><clipPath id="15"><path d="M329.85 106.5L377.85 106.5L377.85 106.5L377.85 90.5L377.85 90.5L329.85 90.5z" /></clipPath><clipPath id="16"><path d="M378.85 106.5L427.0938 106.5L427.0938 106.5L427.0938 90.5L427.0938 90.5L378.85 90.5z" /></clipPath><clipPath id="17"><path d="M50.85 123.5L230.85 123.5L230.85 123.5L230.85 107.5L230.85 107.5L50.85 107.5z" /></clipPath><clipPath id="18"><path d="M280.85 123.5L328.85 123.5L328.85 123.5L328.85 107.5L328.85 107.5L280.85 107.5z" /></clipPath><clipPath id="19"><path d="M329.85 123.5L377.85 123.5L377.85 123.5L377.85 107.5L377.85 107.5L329.85 107.5z" /></clipPath><clipPath id="20"><path d="M378.85 123.5L427.0938 123.5L427.0938 123.5L427.0938 107.5L427.0938 107.5L378.85 107.5z" /></clipPath><clipPath id="21"><path d="M50.85 140.5L230.85 140.5L230.85 140.5L230.85 124.5L230.85 124.5L50.85 124.5z" /></clipPath><clipPath id="22"><path d="M329.85 140.5L377.85 140.5L377.85 140.5L377.85 124.5L377.85 124.5L329.85 124.5z" /></clipPath><clipPath id="23"><path d="M378.85 140.5L427.0938 140.5L427.0938 140.5L427.0938 124.5L427.0938 124.5L378.85 124.5z" /></clipPath><clipPath id="24"><path d="M50.85 157.5L230.85 157.5L230.85 157.5L230.85 141.5L230.85 141.5L50.85 141.5z" /></clipPath><clipPath id="25"><path d="M329.85 157.5L377.85 157.5L377.85 157.5L377.85 141.5L377.85 141.5L329.85 141.5z" /></clipPath><clipPath id="26"><path d="M378.85 157.5L427.0938 157.5L427.0938 157.5L427.0938 141.5L427.0938 141.5L378.85 141.5z" /></clipPath><clipPath id="27"><path d="M50.85 174.5L230.85 174.5L230.85 174.5L230.85 158.5L230.85 158.5L50.85 158.5z" /></clipPath><clipPath id="28"><path d="M378.85 174.5L427.0938 174.5L427.0938 174.5L427.0938 158.5L427.0938 158.5L378.85 158.5z" /></clipPath><clipPath id="29"><path d="M50.85 191.5L230.85 191.5L230.85 191.5L230.85 175.5L230.85 175.5L50.85 175.5z" /></clipPath><clipPath id="30"><path d="M378.85 191.5L427.0938 191.5L427.0938 191.5L427.0938 175.5L427.0938 175.5L378.85 175.5z" /></clipPath><clipPath id="31"><path d="M50.85 208.5L230.85 208.5L230.85 208.5L230.85 192.5L230.85 192.5L50.85 192.5z" /></clipPath><clipPath id="32"><path d="M378.85 208.5L427.0938 208.5L427.0938 208.5L427.0938 192.5L427.0938 192.5L378.85 192.5z" /></clipPath><clipPath id="33"><path d="M50.85 225.5L230.85 225.5L230.85 225.5L230.85 209.5L230.85 209.5L50.85 209.5z" /></clipPath><clipPath id="34"><path d="M378.85 225.5L427.0938 225.5L427.0938 225.5L427.0938 209.5L427.0938 209.5L378.85 209.5z" /></clipPath><clipPath id="35"><path d="M50.85 242.5L230.85 242.5L230.85 242.5L230.85 226.5L230.85 226.5L50.85 226.5z" /></clipPath><clipPath id="36"><path d="M378.85 242.5L427.0938 242.5L427.0938 242.5L427.0938 226.5L427.0938 226.5L378.85 226.5z" /></clipPath><clipPath id="37"><path d="M50.85 287.5L230.85 287.5L230.85 287.5L230.85 259.5L230.85 259.5L50.85 259.5z" /></clipPath><clipPath id="38"><path d="M231.85 287.5L279.85 287.5L279.85 287.5L279.85 259.5L279.85 259.5L231.85 259.5z" /></clipPath><clipPath id="39"><path d="M280.85 287.5L328.85 287.5L328.85 287.5L328.85 259.5L328.85 259.5L280.85 259.5z" /></clipPath><clipPath id="40"><path d="M329.85 287.5L377.85 287.5L377.85 287.5L377.85 259.5L377.85 259.5L329.85 259.5z" /></clipPath><clipPath id="41"><path d="M378.85 287.5L427.0938 287.5L427.0938 287.5L427.0938 259.5L427.0938 259.5L378.85 259.5z" /></clipPath><clipPath id="42"><path d="M50.85 303.5L230.85 303.5L230.85 303.5L230.85 288.5L230.85 288.5L50.85 288.5z" /></clipPath><clipPath id="43"><path d="M231.85 303.5L279.85 303.5L279.85 303.5L279.85 288.5L279.85 288.5L231.85 288.5z" /></clipPath><clipPath id="44"><path d="M50.85 320.5L230.85 320.5L230.85 320.5L230.85 304.5L230.85 304.5L50.85 304.5z" /></clipPath><clipPath id="45"><path d="M231.85 320.5L279.85 320.5L279.85 320.5L279.85 304.5L279.85 304.5L231.85 304.5z" /></clipPath><clipPath id="46"><path d="M280.85 320.5L328.85 320.5L328.85 320.5L328.85 304.5L328.85 304.5L280.85 304.5z" /></clipPath><clipPath id="47"><path d="M50.85 336.5L230.85 336.5L230.85 336.5L230.85 321.5L230.85 321.5L50.85 321.5z" /></clipPath><clipPath id="48"><path d="M231.85 336.5L279.85 336.5L279.85 336.5L279.85 321.5L279.85 321.5L231.85 321.5z" /></clipPath><clipPath id="49"><path d="M280.85 336.5L328.85 336.5L328.85 336.5L328.85 321.5L328.85 321.5L280.85 321.5z" /></clipPath><clipPath id="50"><path d="M50.85 352.5L230.85 352.5L230.85 352.5L230.85 337.5L230.85 337.5L50.85 337.5z" /></clipPath><clipPath id="51"><path d="M329.85 352.5L377.85 352.5L377.85 352.5L377.85 337.5L377.85 337.5L329.85 337.5z" /></clipPath><clipPath id="52"><path d="M378.85 352.5L427.0938 352.5L427.0938 352.5L427.0938 337.5L427.0938 337.5L378.85 337.5z" /></clipPath><clipPath id="53"><path d="M50.85 368.5L230.85 368.5L230.85 368.5L230.85 353.5L230.85 353.5L50.85 353.5z" /></clipPath><clipPath id="54"><path d="M329.85 368.5L377.85 368.5L377.85 368.5L377.85 353.5L377.85 353.5L329.85 353.5z" /></clipPath><clipPath id="55"><path d="M378.85 368.5L427.0938 368.5L427.0938 368.5L427.0938 353.5L427.0938 353.5L378.85 353.5z" /></clipPath><clipPath id="56"><path d="M50.85 385.5L230.85 385.5L230.85 385.5L230.85 369.5L230.85 369.5L50.85 369.5z" /></clipPath><clipPath id="57"><path d="M378.85 385.5L427.0938 385.5L427.0938 385.5L427.0938 369.5L427.0938 369.5L378.85 369.5z" /></clipPath><clipPath id="58"><path d="M50.85 402.5L230.85 402.5L230.85 402.5L230.85 386.5L230.85 386.5L50.85 386.5z" /></clipPath><clipPath id="59"><path d="M378.85 402.5L427.0938 402.5L427.0938 402.5L427.0938 386.5L427.0938 386.5L378.85 386.5z" /></clipPath><clipPath id="60"><path d="M50.85 419.5L230.85 419.5L230.85 419.5L230.85 403.5L230.85 403.5L50.85 403.5z" /></clipPath><clipPath id="61"><path d="M378.85 419.5L427.0938 419.5L427.0938 419.5L427.0938 403.5L427.0938 403.5L378.85 403.5z" /></clipPath><clipPath id="62"><path d="M50.85 436.5L230.85 436.5L230.85 436.5L230.85 420.5L230.85 420.5L50.85 420.5z" /></clipPath><clipPath id="63"><path d="M378.85 436.5L427.0938 436.5L427.0938 436.5L427.0938 420.5L427.0938 420.5L378.85 420.5z" /></clipPath><clipPath id="64"><path d="M50.85 452.5L230.85 452.5L230.85 452.5L230.85 437.5L230.85 437.5L50.85 437.5z" /></clipPath><clipPath id="65"><path d="M378.85 452.5L427.0938 452.5L427.0938 452.5L427.0938 437.5L427.0938 437.5L378.85 437.5z" /></clipPath><clipPath id="66"><path d="M50.85 497.5L230.85 497.5L230.85 497.5L230.85 469.5L230.85 469.5L50.85 469.5z" /></clipPath><clipPath id="67"><path d="M231.85 497.5L279.85 497.5L279.85 497.5L279.85 469.5L279.85 469.5L231.85 469.5z" /></clipPath><clipPath id="68"><path d="M280.85 497.5L328.85 497.5L328.85 497.5L328.85 469.5L328.85 469.5L280.85 469.5z" /></clipPath><clipPath id="69"><path d="M329.85 497.5L377.85 497.5L377.85 497.5L377.85 469.5L377.85 469.5L329.85 469.5z" /></clipPath><clipPath id="70"><path d="M378.85 497.5L427.0938 497.5L427.0938 497.5L427.0938 469.5L427.0938 469.5L378.85 469.5z" /></clipPath><clipPath id="71"><path d="M50.85 514.5L230.85 514.5L230.85 514.5L230.85 498.5L230.85 498.5L50.85 498.5z" /></clipPath><clipPath id="72"><path d="M231.85 514.5L279.85 514.5L279.85 514.5L279.85 498.5L279.85 498.5L231.85 498.5z" /></clipPath><clipPath id="73"><path d="M280.85 514.5L328.85 514.5L328.85 514.5L328.85 498.5L328.85 498.5L280.85 498.5z" /></clipPath><clipPath id="74"><path d="M329.85 514.5L377.85 514.5L377.85 514.5L377.85 498.5L377.85 498.5L329.85 498.5z" /></clipPath><clipPath id="75"><path d="M50.85 530.5L230.85 530.5L230.85 530.5L230.85 515.5L230.85 515.5L50.85 515.5z" /></clipPath><clipPath id="76"><path d="M231.85 530.5L279.85 530.5L279.85 530.5L279.85 515.5L279.85 515.5L231.85 515.5z" /></clipPath><clipPath id="77"><path d="M280.85 530.5L328.85 530.5L328.85 530.5L328.85 515.5L328.85 515.5L280.85 515.5z" /></clipPath><clipPath id="78"><path d="M329.85 530.5L377.85 530.5L377.85 530.5L377.85 515.5L377.85 515.5L329.85 515.5z" /></clipPath><clipPath id="79"><path d="M50.85 547.5L230.85 547.5L230.85 547.5L230.85 531.5L230.85 531.5L50.85 531.5z" /></clipPath><clipPath id="80"><path d="M280.85 547.5L328.85 547.5L328.85 547.5L328.85 531.5L328.85 531.5L280.85 531.5z" /></clipPath><clipPath id="81"><path d="M329.85 547.5L377.85 547.5L377.85 547.5L377.85 531.5L377.85 531.5L329.85 531.5z" /></clipPath><clipPath id="82"><path d="M378.85 547.5L427.0938 547.5L427.0938 547.5L427.0938 531.5L427.0938 531.5L378.85 531.5z" /></clipPath><clipPath id="83"><path d="M50.85 564.5L230.85 564.5L230.85 564.5L230.85 548.5L230.85 548.5L50.85 548.5z" /></clipPath><clipPath id="84"><path d="M329.85 564.5L377.85 564.5L377.85 564.5L377.85 548.5L377.85 548.5L329.85 548.5z" /></clipPath><clipPath id="85"><path d="M378.85 564.5L427.0938 564.5L427.0938 564.5L427.0938 548.5L427.0938 548.5L378.85 548.5z" /></clipPath><clipPath id="86"><path d="M50.85 581.5L230.85 581.5L230.85 581.5L230.85 565.5L230.85 565.5L50.85 565.5z" /></clipPath><clipPath id="87"><path d="M378.85 581.5L427.0938 581.5L427.0938 581.5L427.0938 565.5L427.0938 565.5L378.85 565.5z" /></clipPath><clipPath id="88"><path d="M50.85 598.5L230.85 598.5L230.85 598.5L230.85 582.5L230.85 582.5L50.85 582.5z" /></clipPath><clipPath id="89"><path d="M378.85 598.5L427.0938 598.5L427.0938 598.5L427.0938 582.5L427.0938 582.5L378.85 582.5z" /></clipPath><clipPath id="90"><path d="M50.85 643.5L230.85 643.5L230.85 643.5L230.85 615.5L230.85 615.5L50.85 615.5z" /></clipPath><clipPath id="91"><path d="M231.85 643.5L279.85 643.5L279.85 643.5L279.85 615.5L279.85 615.5L231.85 615.5z" /></clipPath><clipPath id="92"><path d="M280.85 643.5L328.85 643.5L328.85 643.5L328.85 615.5L328.85 615.5L280.85 615.5z" /></clipPath><clipPath id="93"><path d="M329.85 643.5L377.85 643.5L377.85 643.5L377.85 615.5L377.85 615.5L329.85 615.5z" /></clipPath><clipPath id="94"><path d="M378.85 643.5L427.0938 643.5L427.0938 643.5L427.0938 615.5L427.0938 615.5L378.85 615.5z" /></clipPath><clipPath id="95"><path d="M50.85 660.5L230.85 660.5L230.85 660.5L230.85 644.5L230.85 644.5L50.85 644.5z" /></clipPath><clipPath id="96"><path d="M231.85 660.5L279.85 660.5L279.85 660.5L279.85 644.5L279.85 644.5L231.85 644.5z" /></clipPath><clipPath id="97"><path d="M280.85 660.5L328.85 660.5L328.85 660.5L328.85 644.5L328.85 644.5L280.85 644.5z" /></clipPath><clipPath id="98"><path d="M329.85 660.5L377.85 660.5L377.85 660.5L377.85 644.5L377.85 644.5L329.85 644.5z" /></clipPath><clipPath id="99"><path d="M50.85 676.5L230.85 676.5L230.85 676.5L230.85 661.5L230.85 661.5L50.85 661.5z" /></clipPath><clipPath id="100"><path d="M280.85 676.5L328.85 676.5L328.85 676.5L328.85 661.5L328.85 661.5L280.85 661.5z" /></clipPath><clipPath id="101"><path d="M329.85 676.5L377.85 676.5L377.85 676.5L377.85 661.5L377.85 661.5L329.85 661.5z" /></clipPath><clipPath id="102"><path d="M50.85 692.5L230.85 692.5L230.85 692.5L230.85 677.5L230.85 677.5L50.85 677.5z" /></clipPath><clipPath id="103"><path d="M280.85 692.5L328.85 692.5L328.85 692.5L328.85 677.5L328.85 677.5L280.85 677.5z" /></clipPath><clipPath id="104"><path d="M329.85 692.5L377.85 692.5L377.85 692.5L377.85 677.5L377.85 677.5L329.85 677.5z" /></clipPath><clipPath id="105"><path d="M378.85 692.5L427.0938 692.5L427.0938 692.5L427.0938 677.5L427.0938 677.5L378.85 677.5z" /></clipPath><clipPath id="106"><path d="M50.85 708.5L230.85 708.5L230.85 708.5L230.85 693.5L230.85 693.5L50.85 693.5z" /></clipPath><clipPath id="107"><path d="M280.85 708.5L328.85 708.5L328.85 708.5L328.85 693.5L328.85 693.5L280.85 693.5z" /></clipPath><clipPath id="108"><path d="M329.85 708.5L377.85 708.5L377.85 708.5L377.85 693.5L377.85 693.5L329.85 693.5z" /></clipPath><clipPath id="109"><path d="M378.85 708.5L427.0938 708.5L427.0938 708.5L427.0938 693.5L427.0938 693.5L378.85 693.5z" /></clipPath><clipPath id="110"><path d="M50.85 724.5L230.85 724.5L230.85 724.5L230.85 709.5L230.85 709.5L50.85 709.5z" /></clipPath><clipPath id="111"><path d="M329.85 724.5L377.85 724.5L377.85 724.5L377.85 709.5L377.85 709.5L329.85 709.5z" /></clipPath><clipPath id="112"><path d="M378.85 724.5L427.0938 724.5L427.0938 724.5L427.0938 709.5L427.0938 709.5L378.85 709.5z" /></clipPath><clipPath id="113"><path d="M50.85 740.5L230.85 740.5L230.85 740.5L230.85 725.5L230.85 725.5L50.85 725.5z" /></clipPath><clipPath id="114"><path d="M378.85 740.5L427.0938 740.5L427.0938 740.5L427.0938 725.5L427.0938 725.5L378.85 725.5z" /></clipPath><clipPath id="115"><path d="M50.85 757.5L230.85 757.5L230.85 757.5L230.85 741.5L230.85 741.5L50.85 741.5z" /></clipPath><clipPath id="116"><path d="M378.85 757.5L427.0938 757.5L427.0938 757.5L427.0938 741.5L427.0938 741.5L378.85 741.5z" /></clipPath><clipPath id="117"><path d="M48.35 760L429.35 760L429.35 760L429.35 54L429.35 54L48.35 54z" /></clipPath><clipPath id="118"><path d="M290.6631 821L304.3369 821L304.3369 821L304.3369 799L304.3369 799L290.6631 799z" /></clipPath></defs><g transform="matrix(1.333333 0 0 1.333333 0 0)"><g><g clip-path="url(#1)"><g clip-path="url(#2)"><path transform="matrix(1 0 0 -1 0 842)" d="M0 842L595 842L595 842L595 0L595 0L0 0z" stroke="none" fill="#FFFFFE" fill-rule="winding" /></g><g clip-path="url(#3)"><path transform="matrix(1 0 0 -1 0 842)" d="M50.35 788L544.65 788L544.65 788L544.65 54L544.65 54L50.35 54z" stroke="none" fill="#FFFFFE" fill-rule="winding" /></g><g clip-path="url(#4)"><path transform="matrix(1 0 0 -1 0 842)" d="M50.35 786L231.35 786L231.35 786L231.35 769L231.35 769L50.35 769z" stroke="none" fill="#FFFFFE" fill-rule="winding" /><path transform="matrix(1 0 0 -1 0 842)" d="M231.35 786L280.35 786L280.35 786L280.35 769L280.35 769L231.35 769z" stroke="none" fill="#FFFFFE" fill-rule="winding" /><path transform="matrix(1 0 0 -1 0 842)" d="M280.35 786L329.35 786L329.35 786L329.35 769L329.35 769L280.35 769z" stroke="none" fill="#FFFFFE" fill-rule="winding" /><path transform="matrix(1 0 0 -1 0 842)" d="M329.35 786L378.35 786L378.35 786L378.35 769L378.35 769L329.35 769z" stroke="none" fill="#FFFFFE" fill-rule="winding" /><path transform="matrix(1 0 0 -1 0 842)" d="M378.35 786L427.5938 786L427.5938 786L427.5938 769L427.5938 769L378.35 769z" stroke="none" fill="#FFFFFE" fill-rule="winding" /><path transform="matrix(1 0 0 -1 0 842)" d="M50.35 769L231.35 769L231.35 769L231.35 752L231.35 752L50.35 752z" stroke="none" fill="#FFFFFE" fill-rule="winding" /><path transform="matrix(1 0 0 -1 0 842)" d="M231.35 769L280.35 769L280.35 769L280.35 752L280.35 752L231.35 752z" stroke="none" fill="#FFFFFE" fill-rule="winding" /><path transform="matrix(1 0 0 -1 0 842)" d="M280.35 769L329.35 769L329.35 769L329.35 752L329.35 752L280.35 752z" stroke="none" fill="#FFFFFE" fill-rule="winding" /><path transform="matrix(1 0 0 -1 0 842)" d="M329.35 769L378.35 769L378.35 769L378.35 752L378.35 752L329.35 752z" stroke="none" fill="#FFFFFE" fill-rule="winding" /><path transform="matrix(1 0 0 -1 0 842)" d="M378.35 769L427.5938 769L427.5938 769L427.5938 752L427.5938 752L378.35 752z" stroke="none" fill="#FFFFFE" fill-rule="winding" /><path transform="matrix(1 0 0 -1 0 842)" d="M50.35 752L231.35 752L231.35 752L231.35 735L231.35 735L50.35 735z" stroke="none" fill="#FFFFFE" fill-rule="winding" /><path transform="matrix(1 0 0 -1 0 842)" d="M231.35 752L280.35 752L280.35 752L280.35 735L280.35 735L231.35 735z" stroke="none" fill="#FFFFFE" fill-rule="winding" /><path transform="matrix(1 0 0 -1 0 842)" d="M280.35 752L329.35 752L329.35 752L329.35 735L329.35 735L280.35 735z" stroke="none" fill="#FFFFFE" fill-rule="winding" /><path transform="matrix(1 0 0 -1 0 842)" d="M329.35 752L378.35 752L378.35 752L378.35 735L378.35 735L329.35 735z" stroke="none" fill="#FFFFFE" fill-rule="winding" /><path transform="matrix(1 0 0 -1 0 842)" d="M378.35 752L427.5938 752L427.5938 752L427.5938 735L427.5938 735L378.35 735z" stroke="none" fill="#FFFFFE" fill-rule="winding" /><path transform="matrix(1 0 0 -1 0 842)" d="M50.35 735L231.35 735L231.35 735L231.35 718L231.35 718L50.35 718z" stroke="none" fill="#FFFFFE" fill-rule="winding" /><path transform="matrix(1 0 0 -1 0 842)" d="M231.35 735L280.35 735L280.35 735L280.35 718L280.35 718L231.35 718z" stroke="none" fill="#FFFFFE" fill-rule="winding" /><path transform="matrix(1 0 0 -1 0 842)" d="M280.35 735L329.35 735L329.35 735L329.35 718L329.35 718L280.35 718z" stroke="none" fill="#FFFFFE" fill-rule="winding" /><path transform="matrix(1 0 0 -1 0 842)" d="M329.35 735L378.35 735L378.35 735L378.35 718L378.35 718L329.35 718z" stroke="none" fill="#FFFFFE" fill-rule="winding" /><path transform="matrix(1 0 0 -1 0 842)" d="M378.35 735L427.5938 735L427.5938 735L427.5938 718L427.5938 718L378.35 718z" stroke="none" fill="#FFFFFE" fill-rule="winding" /><path transform="matrix(1 0 0 -1 0 842)" d="M50.35 718L231.35 718L231.35 718L231.35 701L231.35 701L50.35 701z" stroke="none" fill="#FFFFFE" fill-rule="winding" /><path transform="matrix(1 0 0 -1 0 842)" d="M231.35 718L280.35 718L280.35 718L280.35 701L280.35 701L231.35 701z" stroke="none" fill="#FFFFFE" fill-rule="winding" /><path transform="matrix(1 0 0 -1 0 842)" d="M280.35 718L329.35 718L329.35 718L329.35 701L329.35 701L280.35 701z" stroke="none" fill="#FFFFFE" fill-rule="winding" /><path transform="matrix(1 0 0 -1 0 842)" d="M329.35 718L378.35 718L378.35 718L378.35 701L378.35 701L329.35 701z" stroke="none" fill="#FFFFFE" fill-rule="winding" /><path transform="matrix(1 0 0 -1 0 842)" d="M378.35 718L427.5938 718L427.5938 718L427.5938 701L427.5938 701L378.35 701z" stroke="none" fill="#FFFFFE" fill-rule="winding" /><path transform="matrix(1 0 0 -1 0 842)" d="M50.35 701L231.35 701L231.35 701L231.35 684L231.35 684L50.35 684z" stroke="none" fill="#FFFFFE" fill-rule="winding" /><path transform="matrix(1 0 0 -1 0 842)" d="M231.35 701L280.35 701L280.35 701L280.35 684L280.35 684L231.35 684z" stroke="none" fill="#FFFFFE" fill-rule="winding" /><path transform="matrix(1 0 0 -1 0 842)" d="M280.35 701L329.35 701L329.35 701L329.35 684L329.35 684L280.35 684z" stroke="none" fill="#FFFFFE" fill-rule="winding" /><path transform="matrix(1 0 0 -1 0 842)" d="M329.35 701L378.35 701L378.35 701L378.35 684L378.35 684L329.35 684z" stroke="none" fill="#FFFFFE" fill-rule="winding" /><path transform="matrix(1 0 0 -1 0 842)" d="M378.35 701L427.5938 701L427.5938 701L427.5938 684L427.5938 684L378.35 684z" stroke="none" fill="#FFFFFE" fill-rule="winding" /><path transform="matrix(1 0 0 -1 0 842)" d="M50.35 684L231.35 684L231.35 684L231.35 667L231.35 667L50.35 667z" stroke="none" fill="#FFFFFE" fill-rule="winding" /><path transform="matrix(1 0 0 -1 0 842)" d="M231.35 684L280.35 684L280.35 684L280.35 667L280.35 667L231.35 667z" stroke="none" fill="#FFFFFE" fill-rule="winding" /><path transform="matrix(1 0 0 -1 0 842)" d="M280.35 684L329.35 684L329.35 684L329.35 667L329.35 667L280.35 667z" stroke="none" fill="#FFFFFE" fill-rule="winding" /><path transform="matrix(1 0 0 -1 0 842)" d="M329.35 684L378.35 684L378.35 684L378.35 667L378.35 667L329.35 667z" stroke="none" fill="#FFFFFE" fill-rule="winding" /><path transform="matrix(1 0 0 -1 0 842)" d="M378.35 684L427.5938 684L427.5938 684L427.5938 667L427.5938 667L378.35 667z" stroke="none" fill="#FFFFFE" fill-rule="winding" /><path transform="matrix(1 0 0 -1 0 842)" d="M50.35 667L231.35 667L231.35 667L231.35 650L231.35 650L50.35 650z" stroke="none" fill="#FFFFFE" fill-rule="winding" /><path transform="matrix(1 0 0 -1 0 842)" d="M231.35 667L280.35 667L280.35 667L280.35 650L280.35 650L231.35 650z" stroke="none" fill="#FFFFFE" fill-rule="winding" /><path transform="matrix(1 0 0 -1 0 842)" d="M280.35 667L329.35 667L329.35 667L329.35 650L329.35 650L280.35 650z" stroke="none" fill="#FFFFFE" fill-rule="winding" /><path transform="matrix(1 0 0 -1 0 842)" d="M329.35 667L378.35 667L378.35 667L378.35 650L378.35 650L329.35 650z" stroke="none" fill="#FFFFFE" fill-rule="winding" /><path transform="matrix(1 0 0 -1 0 842)" d="M378.35 667L427.5938 667L427.5938 667L427.5938 650L427.5938 650L378.35 650z" stroke="none" fill="#FFFFFE" fill-rule="winding" /><path transform="matrix(1 0 0 -1 0 842)" d="M50.35 650L231.35 650L231.35 650L231.35 633L231.35 633L50.35 633z" stroke="none" fill="#FFFFFE" fill-rule="winding" /><path transform="matrix(1 0 0 -1 0 842)" d="M231.35 650L280.35 650L280.35 650L280.35 633L280.35 633L231.35 633z" stroke="none" fill="#FFFFFE" fill-rule="winding" /><path transform="matrix(1 0 0 -1 0 842)" d="M280.35 650L329.35 650L329.35 650L329.35 633L329.35 633L280.35 633z" stroke="none" fill="#FFFFFE" fill-rule="winding" /><path transform="matrix(1 0 0 -1 0 842)" d="M329.35 650L378.35 650L378.35 650L378.35 633L378.35 633L329.35 633z" stroke="none" fill="#FFFFFE" fill-rule="winding" /><path transform="matrix(1 0 0 -1 0 842)" d="M378.35 650L427.5938 650L427.5938 650L427.5938 633L427.5938 633L378.35 633z" stroke="none" fill="#FFFFFE" fill-rule="winding" /><path transform="matrix(1 0 0 -1 0 842)" d="M50.35 633L231.35 633L231.35 633L231.35 616L231.35 616L50.35 616z" stroke="none" fill="#FFFFFE" fill-rule="winding" /><path transform="matrix(1 0 0 -1 0 842)" d="M231.35 633L280.35 633L280.35 633L280.35 616L280.35 616L231.35 616z" stroke="none" fill="#FFFFFE" fill-rule="winding" /><path transform="matrix(1 0 0 -1 0 842)" d="M280.35 633L329.35 633L329.35 633L329.35 616L329.35 616L280.35 616z" stroke="none" fill="#FFFFFE" fill-rule="winding" /><path transform="matrix(1 0 0 -1 0 842)" d="M329.35 633L378.35 633L378.35 633L378.35 616L378.35 616L329.35 616z" stroke="none" fill="#FFFFFE" fill-rule="winding" /><path transform="matrix(1 0 0 -1 0 842)" d="M378.35 633L427.5938 633L427.5938 633L427.5938 616L427.5938 616L378.35 616z" stroke="none" fill="#FFFFFE" fill-rule="winding" /><path transform="matrix(1 0 0 -1 0 842)" d="M50.35 616L231.35 616L231.35 616L231.35 599L231.35 599L50.35 599z" stroke="none" fill="#FFFFFE" fill-rule="winding" /><path transform="matrix(1 0 0 -1 0 842)" d="M231.35 616L280.35 616L280.35 616L280.35 599L280.35 599L231.35 599z" stroke="none" fill="#FFFFFE" fill-rule="winding" /><path transform="matrix(1 0 0 -1 0 842)" d="M280.35 616L329.35 616L329.35 616L329.35 599L329.35 599L280.35 599z" stroke="none" fill="#FFFFFE" fill-rule="winding" /><path transform="matrix(1 0 0 -1 0 842)" d="M329.35 616L378.35 616L378.35 616L378.35 599L378.35 599L329.35 599z" stroke="none" fill="#FFFFFE" fill-rule="winding" /><path transform="matrix(1 0 0 -1 0 842)" d="M378.35 616L427.5938 616L427.5938 616L427.5938 599L427.5938 599L378.35 599z" stroke="none" fill="#FFFFFE" fill-rule="winding" /><path transform="matrix(1 0 0 -1 0 842)" d="M50.35 583L231.35 583L231.35 583L231.35 554L231.35 554L50.35 554z" stroke="none" fill="#FFFF00" fill-rule="winding" /><path transform="matrix(1 0 0 -1 0 842)" d="M231.35 583L280.35 583L280.35 583L280.35 554L280.35 554L231.35 554z" stroke="none" fill="#FFFFFE" fill-rule="winding" /><path transform="matrix(1 0 0 -1 0 842)" d="M280.35 583L329.35 583L329.35 583L329.35 554L329.35 554L280.35 554z" stroke="none" fill="#FFFFFE" fill-rule="winding" /><path transform="matrix(1 0 0 -1 0 842)" d="M329.35 583L378.35 583L378.35 583L378.35 554L378.35 554L329.35 554z" stroke="none" fill="#FFFFFE" fill-rule="winding" /><path transform="matrix(1 0 0 -1 0 842)" d="M378.35 583L427.5938 583L427.5938 583L427.5938 554L427.5938 554L378.35 554z" stroke="none" fill="#FFFFFE" fill-rule="winding" /><path transform="matrix(1 0 0 -1 0 842)" d="M50.35 554L231.35 554L231.35 554L231.35 538L231.35 538L50.35 538z" stroke="none" fill="#FFFFFE" fill-rule="winding" /><path transform="matrix(1 0 0 -1 0 842)" d="M231.35 554L280.35 554L280.35 554L280.35 538L280.35 538L231.35 538z" stroke="none" fill="#FFFFFE" fill-rule="winding" /><path transform="matrix(1 0 0 -1 0 842)" d="M280.35 554L329.35 554L329.35 554L329.35 538L329.35 538L280.35 538z" stroke="none" fill="#FFFFFE" fill-rule="winding" /><path transform="matrix(1 0 0 -1 0 842)" d="M329.35 554L378.35 554L378.35 554L378.35 538L378.35 538L329.35 538z" stroke="none" fill="#FFFFFE" fill-rule="winding" /><path transform="matrix(1 0 0 -1 0 842)" d="M378.35 554L427.5938 554L427.5938 554L427.5938 538L427.5938 538L378.35 538z" stroke="none" fill="#FFFFFE" fill-rule="winding" /><path transform="matrix(1 0 0 -1 0 842)" d="M50.35 538L231.35 538L231.35 538L231.35 521L231.35 521L50.35 521z" stroke="none" fill="#FFFFFE" fill-rule="winding" /><path transform="matrix(1 0 0 -1 0 842)" d="M231.35 538L280.35 538L280.35 538L280.35 521L280.35 521L231.35 521z" stroke="none" fill="#FFFFFE" fill-rule="winding" /><path transform="matrix(1 0 0 -1 0 842)" d="M280.35 538L329.35 538L329.35 538L329.35 521L329.35 521L280.35 521z" stroke="none" fill="#FFFFFE" fill-rule="winding" /><path transform="matrix(1 0 0 -1 0 842)" d="M329.35 538L378.35 538L378.35 538L378.35 521L378.35 521L329.35 521z" stroke="none" fill="#FFFFFE" fill-rule="winding" /><path transform="matrix(1 0 0 -1 0 842)" d="M378.35 538L427.5938 538L427.5938 538L427.5938 521L427.5938 521L378.35 521z" stroke="none" fill="#FFFFFE" fill-rule="winding" /><path transform="matrix(1 0 0 -1 0 842)" d="M50.35 521L231.35 521L231.35 521L231.35 505L231.35 505L50.35 505z" stroke="none" fill="#FFFFFE" fill-rule="winding" /><path transform="matrix(1 0 0 -1 0 842)" d="M231.35 521L280.35 521L280.35 521L280.35 505L280.35 505L231.35 505z" stroke="none" fill="#FFFFFE" fill-rule="winding" /><path transform="matrix(1 0 0 -1 0 842)" d="M280.35 521L329.35 521L329.35 521L329.35 505L329.35 505L280.35 505z" stroke="none" fill="#FFFFFE" fill-rule="winding" /><path transform="matrix(1 0 0 -1 0 842)" d="M329.35 521L378.35 521L378.35 521L378.35 505L378.35 505L329.35 505z" stroke="none" fill="#FFFFFE" fill-rule="winding" /><path transform="matrix(1 0 0 -1 0 842)" d="M378.35 521L427.5938 521L427.5938 521L427.5938 505L427.5938 505L378.35 505z" stroke="none" fill="#FFFFFE" fill-rule="winding" /><path transform="matrix(1 0 0 -1 0 842)" d="M50.35 505L231.35 505L231.35 505L231.35 489L231.35 489L50.35 489z" stroke="none" fill="#FFFFFE" fill-rule="winding" /><path transform="matrix(1 0 0 -1 0 842)" d="M231.35 505L280.35 505L280.35 505L280.35 489L280.35 489L231.35 489z" stroke="none" fill="#FFFFFE" fill-rule="winding" /><path transform="matrix(1 0 0 -1 0 842)" d="M280.35 505L329.35 505L329.35 505L329.35 489L329.35 489L280.35 489z" stroke="none" fill="#FFFFFE" fill-rule="winding" /><path transform="matrix(1 0 0 -1 0 842)" d="M329.35 505L378.35 505L378.35 505L378.35 489L378.35 489L329.35 489z" stroke="none" fill="#FFFFFE" fill-rule="winding" /><path transform="matrix(1 0 0 -1 0 842)" d="M378.35 505L427.5938 505L427.5938 505L427.5938 489L427.5938 489L378.35 489z" stroke="none" fill="#FFFFFE" fill-rule="winding" /><path transform="matrix(1 0 0 -1 0 842)" d="M50.35 489L231.35 489L231.35 489L231.35 473L231.35 473L50.35 473z" stroke="none" fill="#FFFFFE" fill-rule="winding" /><path transform="matrix(1 0 0 -1 0 842)" d="M231.35 489L280.35 489L280.35 489L280.35 473L280.35 473L231.35 473z" stroke="none" fill="#FFFFFE" fill-rule="winding" /><path transform="matrix(1 0 0 -1 0 842)" d="M280.35 489L329.35 489L329.35 489L329.35 473L329.35 473L280.35 473z" stroke="none" fill="#FFFFFE" fill-rule="winding" /><path transform="matrix(1 0 0 -1 0 842)" d="M329.35 489L378.35 489L378.35 489L378.35 473L378.35 473L329.35 473z" stroke="none" fill="#FFFFFE" fill-rule="winding" /><path transform="matrix(1 0 0 -1 0 842)" d="M378.35 489L427.5938 489L427.5938 489L427.5938 473L427.5938 473L378.35 473z" stroke="none" fill="#FFFFFE" fill-rule="winding" /><path transform="matrix(1 0 0 -1 0 842)" d="M50.35 473L231.35 473L231.35 473L231.35 456L231.35 456L50.35 456z" stroke="none" fill="#FFFFFE" fill-rule="winding" /><path transform="matrix(1 0 0 -1 0 842)" d="M231.35 473L280.35 473L280.35 473L280.35 456L280.35 456L231.35 456z" stroke="none" fill="#FFFFFE" fill-rule="winding" /><path transform="matrix(1 0 0 -1 0 842)" d="M280.35 473L329.35 473L329.35 473L329.35 456L329.35 456L280.35 456z" stroke="none" fill="#FFFFFE" fill-rule="winding" /><path transform="matrix(1 0 0 -1 0 842)" d="M329.35 473L378.35 473L378.35 473L378.35 456L378.35 456L329.35 456z" stroke="none" fill="#FFFFFE" fill-rule="winding" /><path transform="matrix(1 0 0 -1 0 842)" d="M378.35 473L427.5938 473L427.5938 473L427.5938 456L427.5938 456L378.35 456z" stroke="none" fill="#FFFFFE" fill-rule="winding" /><path transform="matrix(1 0 0 -1 0 842)" d="M50.35 456L231.35 456L231.35 456L231.35 439L231.35 439L50.35 439z" stroke="none" fill="#FFFFFE" fill-rule="winding" /><path transform="matrix(1 0 0 -1 0 842)" d="M231.35 456L280.35 456L280.35 456L280.35 439L280.35 439L231.35 439z" stroke="none" fill="#FFFFFE" fill-rule="winding" /><path transform="matrix(1 0 0 -1 0 842)" d="M280.35 456L329.35 456L329.35 456L329.35 439L329.35 439L280.35 439z" stroke="none" fill="#FFFFFE" fill-rule="winding" /><path transform="matrix(1 0 0 -1 0 842)" d="M329.35 456L378.35 456L378.35 456L378.35 439L378.35 439L329.35 439z" stroke="none" fill="#FFFFFE" fill-rule="winding" /><path transform="matrix(1 0 0 -1 0 842)" d="M378.35 456L427.5938 456L427.5938 456L427.5938 439L427.5938 439L378.35 439z" stroke="none" fill="#FFFFFE" fill-rule="winding" /><path transform="matrix(1 0 0 -1 0 842)" d="M50.35 439L231.35 439L231.35 439L231.35 422L231.35 422L50.35 422z" stroke="none" fill="#FFFFFE" fill-rule="winding" /><path transform="matrix(1 0 0 -1 0 842)" d="M231.35 439L280.35 439L280.35 439L280.35 422L280.35 422L231.35 422z" stroke="none" fill="#FFFFFE" fill-rule="winding" /><path transform="matrix(1 0 0 -1 0 842)" d="M280.35 439L329.35 439L329.35 439L329.35 422L329.35 422L280.35 422z" stroke="none" fill="#FFFFFE" fill-rule="winding" /><path transform="matrix(1 0 0 -1 0 842)" d="M329.35 439L378.35 439L378.35 439L378.35 422L378.35 422L329.35 422z" stroke="none" fill="#FFFFFE" fill-rule="winding" /><path transform="matrix(1 0 0 -1 0 842)" d="M378.35 439L427.5938 439L427.5938 439L427.5938 422L427.5938 422L378.35 422z" stroke="none" fill="#FFFFFE" fill-rule="winding" /><path transform="matrix(1 0 0 -1 0 842)" d="M50.35 422L231.35 422L231.35 422L231.35 405L231.35 405L50.35 405z" stroke="none" fill="#FFFFFE" fill-rule="winding" /><path transform="matrix(1 0 0 -1 0 842)" d="M231.35 422L280.35 422L280.35 422L280.35 405L280.35 405L231.35 405z" stroke="none" fill="#FFFFFE" fill-rule="winding" /><path transform="matrix(1 0 0 -1 0 842)" d="M280.35 422L329.35 422L329.35 422L329.35 405L329.35 405L280.35 405z" stroke="none" fill="#FFFFFE" fill-rule="winding" /><path transform="matrix(1 0 0 -1 0 842)" d="M329.35 422L378.35 422L378.35 422L378.35 405L378.35 405L329.35 405z" stroke="none" fill="#FFFFFE" fill-rule="winding" /><path transform="matrix(1 0 0 -1 0 842)" d="M378.35 422L427.5938 422L427.5938 422L427.5938 405L427.5938 405L378.35 405z" stroke="none" fill="#FFFFFE" fill-rule="winding" /><path transform="matrix(1 0 0 -1 0 842)" d="M50.35 405L231.35 405L231.35 405L231.35 389L231.35 389L50.35 389z" stroke="none" fill="#FFFFFE" fill-rule="winding" /><path transform="matrix(1 0 0 -1 0 842)" d="M231.35 405L280.35 405L280.35 405L280.35 389L280.35 389L231.35 389z" stroke="none" fill="#FFFFFE" fill-rule="winding" /><path transform="matrix(1 0 0 -1 0 842)" d="M280.35 405L329.35 405L329.35 405L329.35 389L329.35 389L280.35 389z" stroke="none" fill="#FFFFFE" fill-rule="winding" /><path transform="matrix(1 0 0 -1 0 842)" d="M329.35 405L378.35 405L378.35 405L378.35 389L378.35 389L329.35 389z" stroke="none" fill="#FFFFFE" fill-rule="winding" /><path transform="matrix(1 0 0 -1 0 842)" d="M378.35 405L427.5938 405L427.5938 405L427.5938 389L427.5938 389L378.35 389z" stroke="none" fill="#FFFFFE" fill-rule="winding" /><path transform="matrix(1 0 0 -1 0 842)" d="M50.35 373L231.35 373L231.35 373L231.35 344L231.35 344L50.35 344z" stroke="none" fill="#FFFF00" fill-rule="winding" /><path transform="matrix(1 0 0 -1 0 842)" d="M231.35 373L280.35 373L280.35 373L280.35 344L280.35 344L231.35 344z" stroke="none" fill="#FFFFFE" fill-rule="winding" /><path transform="matrix(1 0 0 -1 0 842)" d="M280.35 373L329.35 373L329.35 373L329.35 344L329.35 344L280.35 344z" stroke="none" fill="#FFFFFE" fill-rule="winding" /><path transform="matrix(1 0 0 -1 0 842)" d="M329.35 373L378.35 373L378.35 373L378.35 344L378.35 344L329.35 344z" stroke="none" fill="#FFFFFE" fill-rule="winding" /><path transform="matrix(1 0 0 -1 0 842)" d="M378.35 373L427.5938 373L427.5938 373L427.5938 344L427.5938 344L378.35 344z" stroke="none" fill="#FFFFFE" fill-rule="winding" /><path transform="matrix(1 0 0 -1 0 842)" d="M50.35 344L231.35 344L231.35 344L231.35 327L231.35 327L50.35 327z" stroke="none" fill="#FFFFFE" fill-rule="winding" /><path transform="matrix(1 0 0 -1 0 842)" d="M231.35 344L280.35 344L280.35 344L280.35 327L280.35 327L231.35 327z" stroke="none" fill="#FFFFFE" fill-rule="winding" /><path transform="matrix(1 0 0 -1 0 842)" d="M280.35 344L329.35 344L329.35 344L329.35 327L329.35 327L280.35 327z" stroke="none" fill="#FFFFFE" fill-rule="winding" /><path transform="matrix(1 0 0 -1 0 842)" d="M329.35 344L378.35 344L378.35 344L378.35 327L378.35 327L329.35 327z" stroke="none" fill="#FFFFFE" fill-rule="winding" /><path transform="matrix(1 0 0 -1 0 842)" d="M378.35 344L427.5938 344L427.5938 344L427.5938 327L427.5938 327L378.35 327z" stroke="none" fill="#FFFFFE" fill-rule="winding" /><path transform="matrix(1 0 0 -1 0 842)" d="M50.35 327L231.35 327L231.35 327L231.35 311L231.35 311L50.35 311z" stroke="none" fill="#FFFFFE" fill-rule="winding" /><path transform="matrix(1 0 0 -1 0 842)" d="M231.35 327L280.35 327L280.35 327L280.35 311L280.35 311L231.35 311z" stroke="none" fill="#FFFFFE" fill-rule="winding" /><path transform="matrix(1 0 0 -1 0 842)" d="M280.35 327L329.35 327L329.35 327L329.35 311L329.35 311L280.35 311z" stroke="none" fill="#FFFFFE" fill-rule="winding" /><path transform="matrix(1 0 0 -1 0 842)" d="M329.35 327L378.35 327L378.35 327L378.35 311L378.35 311L329.35 311z" stroke="none" fill="#FFFFFE" fill-rule="winding" /><path transform="matrix(1 0 0 -1 0 842)" d="M378.35 327L427.5938 327L427.5938 327L427.5938 311L427.5938 311L378.35 311z" stroke="none" fill="#FFFFFE" fill-rule="winding" /><path transform="matrix(1 0 0 -1 0 842)" d="M50.35 311L231.35 311L231.35 311L231.35 294L231.35 294L50.35 294z" stroke="none" fill="#FFFFFE" fill-rule="winding" /><path transform="matrix(1 0 0 -1 0 842)" d="M231.35 311L280.35 311L280.35 311L280.35 294L280.35 294L231.35 294z" stroke="none" fill="#FFFFFE" fill-rule="winding" /><path transform="matrix(1 0 0 -1 0 842)" d="M280.35 311L329.35 311L329.35 311L329.35 294L329.35 294L280.35 294z" stroke="none" fill="#FFFFFE" fill-rule="winding" /><path transform="matrix(1 0 0 -1 0 842)" d="M329.35 311L378.35 311L378.35 311L378.35 294L378.35 294L329.35 294z" stroke="none" fill="#FFFFFE" fill-rule="winding" /><path transform="matrix(1 0 0 -1 0 842)" d="M378.35 311L427.5938 311L427.5938 311L427.5938 294L427.5938 294L378.35 294z" stroke="none" fill="#FFFFFE" fill-rule="winding" /><path transform="matrix(1 0 0 -1 0 842)" d="M50.35 294L231.35 294L231.35 294L231.35 277L231.35 277L50.35 277z" stroke="none" fill="#FFFFFE" fill-rule="winding" /><path transform="matrix(1 0 0 -1 0 842)" d="M231.35 294L280.35 294L280.35 294L280.35 277L280.35 277L231.35 277z" stroke="none" fill="#FFFFFE" fill-rule="winding" /><path transform="matrix(1 0 0 -1 0 842)" d="M280.35 294L329.35 294L329.35 294L329.35 277L329.35 277L280.35 277z" stroke="none" fill="#FFFFFE" fill-rule="winding" /><path transform="matrix(1 0 0 -1 0 842)" d="M329.35 294L378.35 294L378.35 294L378.35 277L378.35 277L329.35 277z" stroke="none" fill="#FFFFFE" fill-rule="winding" /><path transform="matrix(1 0 0 -1 0 842)" d="M378.35 294L427.5938 294L427.5938 294L427.5938 277L427.5938 277L378.35 277z" stroke="none" fill="#FFFFFE" fill-rule="winding" /><path transform="matrix(1 0 0 -1 0 842)" d="M50.35 277L231.35 277L231.35 277L231.35 260L231.35 260L50.35 260z" stroke="none" fill="#FFFFFE" fill-rule="winding" /><path transform="matrix(1 0 0 -1 0 842)" d="M231.35 277L280.35 277L280.35 277L280.35 260L280.35 260L231.35 260z" stroke="none" fill="#FFFFFE" fill-rule="winding" /><path transform="matrix(1 0 0 -1 0 842)" d="M280.35 277L329.35 277L329.35 277L329.35 260L329.35 260L280.35 260z" stroke="none" fill="#FFFFFE" fill-rule="winding" /><path transform="matrix(1 0 0 -1 0 842)" d="M329.35 277L378.35 277L378.35 277L378.35 260L378.35 260L329.35 260z" stroke="none" fill="#FFFFFE" fill-rule="winding" /><path transform="matrix(1 0 0 -1 0 842)" d="M378.35 277L427.5938 277L427.5938 277L427.5938 260L427.5938 260L378.35 260z" stroke="none" fill="#FFFFFE" fill-rule="winding" /><path transform="matrix(1 0 0 -1 0 842)" d="M50.35 260L231.35 260L231.35 260L231.35 243L231.35 243L50.35 243z" stroke="none" fill="#FFFFFE" fill-rule="winding" /><path transform="matrix(1 0 0 -1 0 842)" d="M231.35 260L280.35 260L280.35 260L280.35 243L280.35 243L231.35 243z" stroke="none" fill="#FFFFFE" fill-rule="winding" /><path transform="matrix(1 0 0 -1 0 842)" d="M280.35 260L329.35 260L329.35 260L329.35 243L329.35 243L280.35 243z" stroke="none" fill="#FFFFFE" fill-rule="winding" /><path transform="matrix(1 0 0 -1 0 842)" d="M329.35 260L378.35 260L378.35 260L378.35 243L378.35 243L329.35 243z" stroke="none" fill="#FFFFFE" fill-rule="winding" /><path transform="matrix(1 0 0 -1 0 842)" d="M378.35 260L427.5938 260L427.5938 260L427.5938 243L427.5938 243L378.35 243z" stroke="none" fill="#FFFFFE" fill-rule="winding" /><path transform="matrix(1 0 0 -1 0 842)" d="M50.35 227L231.35 227L231.35 227L231.35 198L231.35 198L50.35 198z" stroke="none" fill="#FFFF00" fill-rule="winding" /><path transform="matrix(1 0 0 -1 0 842)" d="M231.35 227L280.35 227L280.35 227L280.35 198L280.35 198L231.35 198z" stroke="none" fill="#FFFFFE" fill-rule="winding" /><path transform="matrix(1 0 0 -1 0 842)" d="M280.35 227L329.35 227L329.35 227L329.35 198L329.35 198L280.35 198z" stroke="none" fill="#FFFFFE" fill-rule="winding" /><path transform="matrix(1 0 0 -1 0 842)" d="M329.35 227L378.35 227L378.35 227L378.35 198L378.35 198L329.35 198z" stroke="none" fill="#FFFFFE" fill-rule="winding" /><path transform="matrix(1 0 0 -1 0 842)" d="M378.35 227L427.5938 227L427.5938 227L427.5938 198L427.5938 198L378.35 198z" stroke="none" fill="#FFFFFE" fill-rule="winding" /><path transform="matrix(1 0 0 -1 0 842)" d="M50.35 198L231.35 198L231.35 198L231.35 181L231.35 181L50.35 181z" stroke="none" fill="#FFFFFE" fill-rule="winding" /><path transform="matrix(1 0 0 -1 0 842)" d="M231.35 198L280.35 198L280.35 198L280.35 181L280.35 181L231.35 181z" stroke="none" fill="#FFFFFE" fill-rule="winding" /><path transform="matrix(1 0 0 -1 0 842)" d="M280.35 198L329.35 198L329.35 198L329.35 181L329.35 181L280.35 181z" stroke="none" fill="#FFFFFE" fill-rule="winding" /><path transform="matrix(1 0 0 -1 0 842)" d="M329.35 198L378.35 198L378.35 198L378.35 181L378.35 181L329.35 181z" stroke="none" fill="#FFFFFE" fill-rule="winding" /><path transform="matrix(1 0 0 -1 0 842)" d="M378.35 198L427.5938 198L427.5938 198L427.5938 181L427.5938 181L378.35 181z" stroke="none" fill="#FFFFFE" fill-rule="winding" /><path transform="matrix(1 0 0 -1 0 842)" d="M50.35 181L231.35 181L231.35 181L231.35 165L231.35 165L50.35 165z" stroke="none" fill="#FFFFFE" fill-rule="winding" /><path transform="matrix(1 0 0 -1 0 842)" d="M231.35 181L280.35 181L280.35 181L280.35 165L280.35 165L231.35 165z" stroke="none" fill="#FFFFFE" fill-rule="winding" /><path transform="matrix(1 0 0 -1 0 842)" d="M280.35 181L329.35 181L329.35 181L329.35 165L329.35 165L280.35 165z" stroke="none" fill="#FFFFFE" fill-rule="winding" /><path transform="matrix(1 0 0 -1 0 842)" d="M329.35 181L378.35 181L378.35 181L378.35 165L378.35 165L329.35 165z" stroke="none" fill="#FFFFFE" fill-rule="winding" /><path transform="matrix(1 0 0 -1 0 842)" d="M378.35 181L427.5938 181L427.5938 181L427.5938 165L427.5938 165L378.35 165z" stroke="none" fill="#FFFFFE" fill-rule="winding" /><path transform="matrix(1 0 0 -1 0 842)" d="M50.35 165L231.35 165L231.35 165L231.35 149L231.35 149L50.35 149z" stroke="none" fill="#FFFFFE" fill-rule="winding" /><path transform="matrix(1 0 0 -1 0 842)" d="M231.35 165L280.35 165L280.35 165L280.35 149L280.35 149L231.35 149z" stroke="none" fill="#FFFFFE" fill-rule="winding" /><path transform="matrix(1 0 0 -1 0 842)" d="M280.35 165L329.35 165L329.35 165L329.35 149L329.35 149L280.35 149z" stroke="none" fill="#FFFFFE" fill-rule="winding" /><path transform="matrix(1 0 0 -1 0 842)" d="M329.35 165L378.35 165L378.35 165L378.35 149L378.35 149L329.35 149z" stroke="none" fill="#FFFFFE" fill-rule="winding" /><path transform="matrix(1 0 0 -1 0 842)" d="M378.35 165L427.5938 165L427.5938 165L427.5938 149L427.5938 149L378.35 149z" stroke="none" fill="#FFFFFE" fill-rule="winding" /><path transform="matrix(1 0 0 -1 0 842)" d="M50.35 149L231.35 149L231.35 149L231.35 133L231.35 133L50.35 133z" stroke="none" fill="#FFFFFE" fill-rule="winding" /><path transform="matrix(1 0 0 -1 0 842)" d="M231.35 149L280.35 149L280.35 149L280.35 133L280.35 133L231.35 133z" stroke="none" fill="#FFFFFE" fill-rule="winding" /><path transform="matrix(1 0 0 -1 0 842)" d="M280.35 149L329.35 149L329.35 149L329.35 133L329.35 133L280.35 133z" stroke="none" fill="#FFFFFE" fill-rule="winding" /><path transform="matrix(1 0 0 -1 0 842)" d="M329.35 149L378.35 149L378.35 149L378.35 133L378.35 133L329.35 133z" stroke="none" fill="#FFFFFE" fill-rule="winding" /><path transform="matrix(1 0 0 -1 0 842)" d="M378.35 149L427.5938 149L427.5938 149L427.5938 133L427.5938 133L378.35 133z" stroke="none" fill="#FFFFFE" fill-rule="winding" /><path transform="matrix(1 0 0 -1 0 842)" d="M50.35 133L231.35 133L231.35 133L231.35 117L231.35 117L50.35 117z" stroke="none" fill="#FFFFFE" fill-rule="winding" /><path transform="matrix(1 0 0 -1 0 842)" d="M231.35 133L280.35 133L280.35 133L280.35 117L280.35 117L231.35 117z" stroke="none" fill="#FFFFFE" fill-rule="winding" /><path transform="matrix(1 0 0 -1 0 842)" d="M280.35 133L329.35 133L329.35 133L329.35 117L329.35 117L280.35 117z" stroke="none" fill="#FFFFFE" fill-rule="winding" /><path transform="matrix(1 0 0 -1 0 842)" d="M329.35 133L378.35 133L378.35 133L378.35 117L378.35 117L329.35 117z" stroke="none" fill="#FFFFFE" fill-rule="winding" /><path transform="matrix(1 0 0 -1 0 842)" d="M378.35 133L427.5938 133L427.5938 133L427.5938 117L427.5938 117L378.35 117z" stroke="none" fill="#FFFFFE" fill-rule="winding" /><path transform="matrix(1 0 0 -1 0 842)" d="M50.35 117L231.35 117L231.35 117L231.35 101L231.35 101L50.35 101z" stroke="none" fill="#FFFFFE" fill-rule="winding" /><path transform="matrix(1 0 0 -1 0 842)" d="M231.35 117L280.35 117L280.35 117L280.35 101L280.35 101L231.35 101z" stroke="none" fill="#FFFFFE" fill-rule="winding" /><path transform="matrix(1 0 0 -1 0 842)" d="M280.35 117L329.35 117L329.35 117L329.35 101L329.35 101L280.35 101z" stroke="none" fill="#FFFFFE" fill-rule="winding" /><path transform="matrix(1 0 0 -1 0 842)" d="M329.35 117L378.35 117L378.35 117L378.35 101L378.35 101L329.35 101z" stroke="none" fill="#FFFFFE" fill-rule="winding" /><path transform="matrix(1 0 0 -1 0 842)" d="M378.35 117L427.5938 117L427.5938 117L427.5938 101L427.5938 101L378.35 101z" stroke="none" fill="#FFFFFE" fill-rule="winding" /><path transform="matrix(1 0 0 -1 0 842)" d="M50.35 101L231.35 101L231.35 101L231.35 84L231.35 84L50.35 84z" stroke="none" fill="#FFFFFE" fill-rule="winding" /><path transform="matrix(1 0 0 -1 0 842)" d="M231.35 101L280.35 101L280.35 101L280.35 84L280.35 84L231.35 84z" stroke="none" fill="#FFFFFE" fill-rule="winding" /><path transform="matrix(1 0 0 -1 0 842)" d="M280.35 101L329.35 101L329.35 101L329.35 84L329.35 84L280.35 84z" stroke="none" fill="#FFFFFE" fill-rule="winding" /><path transform="matrix(1 0 0 -1 0 842)" d="M329.35 101L378.35 101L378.35 101L378.35 84L378.35 84L329.35 84z" stroke="none" fill="#FFFFFE" fill-rule="winding" /><path transform="matrix(1 0 0 -1 0 842)" d="M378.35 101L427.5938 101L427.5938 101L427.5938 84L427.5938 84L378.35 84z" stroke="none" fill="#FFFFFE" fill-rule="winding" /></g><g clip-path="url(#5)"></g><g clip-path="url(#6)"><path transform="matrix(1 0 0 -1 0 842)" d="M233.85 770.8274L276.6469 770.8274" stroke="#0000FE" stroke-width="0.6982422" fill="none" /></g><g clip-path="url(#7)"><path transform="matrix(1 0 0 -1 0 842)" d="M282.85 770.8274L325.6469 770.8274" stroke="#0000FE" stroke-width="0.6982422" fill="none" /></g><g clip-path="url(#8)"><path transform="matrix(1 0 0 -1 0 842)" d="M331.85 770.8274L374.6469 770.8274" stroke="#0000FE" stroke-width="0.6982422" fill="none" /></g><g clip-path="url(#9)"></g><g clip-path="url(#10)"><path transform="matrix(1 0 0 -1 0 842)" d="M282.85 753.8274L325.6469 753.8274" stroke="#0000FE" stroke-width="0.6982422" fill="none" /></g><g clip-path="url(#11)"><path transform="matrix(1 0 0 -1 0 842)" d="M331.85 753.8274L374.6469 753.8274" stroke="#0000FE" stroke-width="0.6982422" fill="none" /></g><g clip-path="url(#12)"><path transform="matrix(1 0 0 -1 0 842)" d="M380.85 753.8274L423.5395 753.8274" stroke="#0000FE" stroke-width="0.6982422" fill="none" /></g><g clip-path="url(#13)"></g><g clip-path="url(#14)"><path transform="matrix(1 0 0 -1 0 842)" d="M282.85 736.8274L325.6469 736.8274" stroke="#0000FE" stroke-width="0.6982422" fill="none" /></g><g clip-path="url(#15)"><path transform="matrix(1 0 0 -1 0 842)" d="M331.85 736.8274L374.6469 736.8274" stroke="#0000FE" stroke-width="0.6982422" fill="none" /></g><g clip-path="url(#16)"><path transform="matrix(1 0 0 -1 0 842)" d="M380.85 736.8274L423.5395 736.8274" stroke="#0000FE" stroke-width="0.6982422" fill="none" /></g><g clip-path="url(#17)"></g><g clip-path="url(#18)"><path transform="matrix(1 0 0 -1 0 842)" d="M282.85 719.8274L325.6469 719.8274" stroke="#0000FE" stroke-width="0.6982422" fill="none" /></g><g clip-path="url(#19)"><path transform="matrix(1 0 0 -1 0 842)" d="M331.85 719.8274L374.6469 719.8274" stroke="#0000FE" stroke-width="0.6982422" fill="none" /></g><g clip-path="url(#20)"><path transform="matrix(1 0 0 -1 0 842)" d="M380.85 719.8274L423.5395 719.8274" stroke="#0000FE" stroke-width="0.6982422" fill="none" /></g><g clip-path="url(#21)"></g><g clip-path="url(#22)"><path transform="matrix(1 0 0 -1 0 842)" d="M331.85 702.8274L374.5395 702.8274" stroke="#0000FE" stroke-width="0.6982422" fill="none" /></g><g clip-path="url(#23)"><path transform="matrix(1 0 0 -1 0 842)" d="M380.85 702.8274L423.5395 702.8274" stroke="#0000FE" stroke-width="0.6982422" fill="none" /></g><g clip-path="url(#24)"></g><g clip-path="url(#25)"><path transform="matrix(1 0 0 -1 0 842)" d="M331.85 685.8274L374.5395 685.8274" stroke="#0000FE" stroke-width="0.6982422" fill="none" /></g><g clip-path="url(#26)"><path transform="matrix(1 0 0 -1 0 842)" d="M380.85 685.8274L423.5395 685.8274" stroke="#0000FE" stroke-width="0.6982422" fill="none" /></g><g clip-path="url(#27)"></g><g clip-path="url(#28)"><path transform="matrix(1 0 0 -1 0 842)" d="M380.85 668.8274L423.5395 668.8274" stroke="#0000FE" stroke-width="0.6982422" fill="none" /></g><g clip-path="url(#29)"></g><g clip-path="url(#30)"><path transform="matrix(1 0 0 -1 0 842)" d="M380.85 651.8274L423.5395 651.8274" stroke="#0000FE" stroke-width="0.6982422" fill="none" /></g><g clip-path="url(#31)"></g><g clip-path="url(#32)"><path transform="matrix(1 0 0 -1 0 842)" d="M380.85 634.8274L423.5395 634.8274" stroke="#0000FE" stroke-width="0.6982422" fill="none" /></g><g clip-path="url(#33)"></g><g clip-path="url(#34)"><path transform="matrix(1 0 0 -1 0 842)" d="M380.85 617.8274L423.5395 617.8274" stroke="#0000FE" stroke-width="0.6982422" fill="none" /></g><g clip-path="url(#35)"></g><g clip-path="url(#36)"><path transform="matrix(1 0 0 -1 0 842)" d="M380.85 600.8274L423.5395 600.8274" stroke="#0000FE" stroke-width="0.6982422" fill="none" /></g><g clip-path="url(#37)"></g><g clip-path="url(#38)"></g><g clip-path="url(#39)"></g><g clip-path="url(#40)"></g><g clip-path="url(#41)"></g><g clip-path="url(#42)"></g><g clip-path="url(#43)"><path transform="matrix(1 0 0 -1 0 842)" d="M233.85 539.8274L276.6469 539.8274" stroke="#0000FE" stroke-width="0.6982422" fill="none" /></g><g clip-path="url(#44)"></g><g clip-path="url(#45)"><path transform="matrix(1 0 0 -1 0 842)" d="M233.85 522.8274L276.6469 522.8274" stroke="#0000FE" stroke-width="0.6982422" fill="none" /></g><g clip-path="url(#46)"><path transform="matrix(1 0 0 -1 0 842)" d="M282.85 522.8274L325.6469 522.8274" stroke="#0000FE" stroke-width="0.6982422" fill="none" /></g><g clip-path="url(#47)"></g><g clip-path="url(#48)"><path transform="matrix(1 0 0 -1 0 842)" d="M233.85 506.8274L276.6469 506.8274" stroke="#0000FE" stroke-width="0.6982422" fill="none" /></g><g clip-path="url(#49)"><path transform="matrix(1 0 0 -1 0 842)" d="M282.85 506.8274L325.6469 506.8274" stroke="#0000FE" stroke-width="0.6982422" fill="none" /></g><g clip-path="url(#50)"></g><g clip-path="url(#51)"><path transform="matrix(1 0 0 -1 0 842)" d="M331.85 490.8274L374.5395 490.8274" stroke="#0000FE" stroke-width="0.6982422" fill="none" /></g><g clip-path="url(#52)"><path transform="matrix(1 0 0 -1 0 842)" d="M380.85 490.8274L423.5395 490.8274" stroke="#0000FE" stroke-width="0.6982422" fill="none" /></g><g clip-path="url(#53)"></g><g clip-path="url(#54)"><path transform="matrix(1 0 0 -1 0 842)" d="M331.85 474.8274L374.5395 474.8274" stroke="#0000FE" stroke-width="0.6982422" fill="none" /></g><g clip-path="url(#55)"><path transform="matrix(1 0 0 -1 0 842)" d="M380.85 474.8274L423.5395 474.8274" stroke="#0000FE" stroke-width="0.6982422" fill="none" /></g><g clip-path="url(#56)"></g><g clip-path="url(#57)"><path transform="matrix(1 0 0 -1 0 842)" d="M380.85 457.8274L423.5395 457.8274" stroke="#0000FE" stroke-width="0.6982422" fill="none" /></g><g clip-path="url(#58)"></g><g clip-path="url(#59)"><path transform="matrix(1 0 0 -1 0 842)" d="M380.85 440.8274L423.5395 440.8274" stroke="#0000FE" stroke-width="0.6982422" fill="none" /></g><g clip-path="url(#60)"></g><g clip-path="url(#61)"><path transform="matrix(1 0 0 -1 0 842)" d="M380.85 423.8274L423.5395 423.8274" stroke="#0000FE" stroke-width="0.6982422" fill="none" /></g><g clip-path="url(#62)"></g><g clip-path="url(#63)"><path transform="matrix(1 0 0 -1 0 842)" d="M380.85 406.8274L423.5395 406.8274" stroke="#0000FE" stroke-width="0.6982422" fill="none" /></g><g clip-path="url(#64)"></g><g clip-path="url(#65)"><path transform="matrix(1 0 0 -1 0 842)" d="M380.85 390.8274L423.5395 390.8274" stroke="#0000FE" stroke-width="0.6982422" fill="none" /></g><g clip-path="url(#66)"></g><g clip-path="url(#67)"></g><g clip-path="url(#68)"></g><g clip-path="url(#69)"></g><g clip-path="url(#70)"></g><g clip-path="url(#71)"></g><g clip-path="url(#72)"><path transform="matrix(1 0 0 -1 0 842)" d="M233.85 328.8274L276.6469 328.8274" stroke="#0000FE" stroke-width="0.6982422" fill="none" /></g><g clip-path="url(#73)"><path transform="matrix(1 0 0 -1 0 842)" d="M282.85 328.8274L325.6469 328.8274" stroke="#0000FE" stroke-width="0.6982422" fill="none" /></g><g clip-path="url(#74)"><path transform="matrix(1 0 0 -1 0 842)" d="M331.85 328.8274L374.6469 328.8274" stroke="#0000FE" stroke-width="0.6982422" fill="none" /></g><g clip-path="url(#75)"></g><g clip-path="url(#76)"><path transform="matrix(1 0 0 -1 0 842)" d="M233.85 312.8274L276.6469 312.8274" stroke="#0000FE" stroke-width="0.6982422" fill="none" /></g><g clip-path="url(#77)"><path transform="matrix(1 0 0 -1 0 842)" d="M282.85 312.8274L325.6469 312.8274" stroke="#0000FE" stroke-width="0.6982422" fill="none" /></g><g clip-path="url(#78)"><path transform="matrix(1 0 0 -1 0 842)" d="M331.85 312.8274L374.6469 312.8274" stroke="#0000FE" stroke-width="0.6982422" fill="none" /></g><g clip-path="url(#79)"></g><g clip-path="url(#80)"><path transform="matrix(1 0 0 -1 0 842)" d="M282.85 295.8274L325.6469 295.8274" stroke="#0000FE" stroke-width="0.6982422" fill="none" /></g><g clip-path="url(#81)"><path transform="matrix(1 0 0 -1 0 842)" d="M331.85 295.8274L374.6469 295.8274" stroke="#0000FE" stroke-width="0.6982422" fill="none" /></g><g clip-path="url(#82)"><path transform="matrix(1 0 0 -1 0 842)" d="M380.85 295.8274L423.5395 295.8274" stroke="#0000FE" stroke-width="0.6982422" fill="none" /></g><g clip-path="url(#83)"></g><g clip-path="url(#84)"><path transform="matrix(1 0 0 -1 0 842)" d="M331.85 278.8274L374.5395 278.8274" stroke="#0000FE" stroke-width="0.6982422" fill="none" /></g><g clip-path="url(#85)"><path transform="matrix(1 0 0 -1 0 842)" d="M380.85 278.8274L423.5395 278.8274" stroke="#0000FE" stroke-width="0.6982422" fill="none" /></g><g clip-path="url(#86)"></g><g clip-path="url(#87)"><path transform="matrix(1 0 0 -1 0 842)" d="M380.85 261.8274L423.5395 261.8274" stroke="#0000FE" stroke-width="0.6982422" fill="none" /></g><g clip-path="url(#88)"></g><g clip-path="url(#89)"><path transform="matrix(1 0 0 -1 0 842)" d="M380.85 244.8274L423.5395 244.8274" stroke="#0000FE" stroke-width="0.6982422" fill="none" /></g><g clip-path="url(#90)"></g><g clip-path="url(#91)"></g><g clip-path="url(#92)"></g><g clip-path="url(#93)"></g><g clip-path="url(#94)"></g><g clip-path="url(#95)"></g><g clip-path="url(#96)"><path transform="matrix(1 0 0 -1 0 842)" d="M233.85 182.8274L276.6469 182.8274" stroke="#0000FE" stroke-width="0.6982422" fill="none" /></g><g clip-path="url(#97)"><path transform="matrix(1 0 0 -1 0 842)" d="M282.85 182.8274L325.6469 182.8274" stroke="#0000FE" stroke-width="0.6982422" fill="none" /></g><g clip-path="url(#98)"><path transform="matrix(1 0 0 -1 0 842)" d="M331.85 182.8274L374.6469 182.8274" stroke="#0000FE" stroke-width="0.6982422" fill="none" /></g><g clip-path="url(#99)"></g><g clip-path="url(#100)"><path transform="matrix(1 0 0 -1 0 842)" d="M282.85 166.8274L325.6469 166.8274" stroke="#0000FE" stroke-width="0.6982422" fill="none" /></g><g clip-path="url(#101)"><path transform="matrix(1 0 0 -1 0 842)" d="M331.85 166.8274L374.6469 166.8274" stroke="#0000FE" stroke-width="0.6982422" fill="none" /></g><g clip-path="url(#102)"></g><g clip-path="url(#103)"><path transform="matrix(1 0 0 -1 0 842)" d="M282.85 150.8274L325.6469 150.8274" stroke="#0000FE" stroke-width="0.6982422" fill="none" /></g><g clip-path="url(#104)"><path transform="matrix(1 0 0 -1 0 842)" d="M331.85 150.8274L374.6469 150.8274" stroke="#0000FE" stroke-width="0.6982422" fill="none" /></g><g clip-path="url(#105)"><path transform="matrix(1 0 0 -1 0 842)" d="M380.85 150.8274L423.5395 150.8274" stroke="#0000FE" stroke-width="0.6982422" fill="none" /></g><g clip-path="url(#106)"></g><g clip-path="url(#107)"><path transform="matrix(1 0 0 -1 0 842)" d="M282.85 134.8274L325.6469 134.8274" stroke="#0000FE" stroke-width="0.6982422" fill="none" /></g><g clip-path="url(#108)"><path transform="matrix(1 0 0 -1 0 842)" d="M331.85 134.8274L374.6469 134.8274" stroke="#0000FE" stroke-width="0.6982422" fill="none" /></g><g clip-path="url(#109)"><path transform="matrix(1 0 0 -1 0 842)" d="M380.85 134.8274L423.5395 134.8274" stroke="#0000FE" stroke-width="0.6982422" fill="none" /></g><g clip-path="url(#110)"></g><g clip-path="url(#111)"><path transform="matrix(1 0 0 -1 0 842)" d="M331.85 118.8274L374.5395 118.8274" stroke="#0000FE" stroke-width="0.6982422" fill="none" /></g><g clip-path="url(#112)"><path transform="matrix(1 0 0 -1 0 842)" d="M380.85 118.8274L423.5395 118.8274" stroke="#0000FE" stroke-width="0.6982422" fill="none" /></g><g clip-path="url(#113)"></g><g clip-path="url(#114)"><path transform="matrix(1 0 0 -1 0 842)" d="M380.85 102.8274L423.5395 102.8274" stroke="#0000FE" stroke-width="0.6982422" fill="none" /></g><g clip-path="url(#115)"></g><g clip-path="url(#116)"><path transform="matrix(1 0 0 -1 0 842)" d="M380.85 85.82737L423.5395 85.82737" stroke="#0000FE" stroke-width="0.6982422" fill="none" /></g><g clip-path="url(#117)"><path transform="matrix(1 0 0 -1 0 842)" d="M231.35 786L231.35 769" stroke="#000000" stroke-width="1" fill="none" /><path transform="matrix(1 0 0 -1 0 842)" d="M231.35 769L231.35 599" stroke="#000000" stroke-width="1" fill="none" /><path transform="matrix(1 0 0 -1 0 842)" d="M231.35 599L231.35 583" stroke="#AAAAAA" stroke-width="1" fill="none" /><path transform="matrix(1 0 0 -1 0 842)" d="M231.35 583L231.35 389" stroke="#000000" stroke-width="1" fill="none" /><path transform="matrix(1 0 0 -1 0 842)" d="M231.35 389L231.35 373" stroke="#AAAAAA" stroke-width="1" fill="none" /><path transform="matrix(1 0 0 -1 0 842)" d="M231.35 373L231.35 344" stroke="#000000" stroke-width="1" fill="none" /><path transform="matrix(1 0 0 -1 0 842)" d="M231.35 344L231.35 327" stroke="#000000" stroke-width="1" fill="none" /><path transform="matrix(1 0 0 -1 0 842)" d="M231.35 327L231.35 311" stroke="#000000" stroke-width="1" fill="none" /><path transform="matrix(1 0 0 -1 0 842)" d="M231.35 311L231.35 243" stroke="#000000" stroke-width="1" fill="none" /><path transform="matrix(1 0 0 -1 0 842)" d="M231.35 243L231.35 227" stroke="#AAAAAA" stroke-width="1" fill="none" /><path transform="matrix(1 0 0 -1 0 842)" d="M231.35 227L231.35 198" stroke="#000000" stroke-width="1" fill="none" /><path transform="matrix(1 0 0 -1 0 842)" d="M231.35 198L231.35 181" stroke="#000000" stroke-width="1" fill="none" /><path transform="matrix(1 0 0 -1 0 842)" d="M231.35 181L231.35 83.5" stroke="#000000" stroke-width="1" fill="none" /><path transform="matrix(1 0 0 -1 0 842)" d="M280.35 786L280.35 769" stroke="#000000" stroke-width="1" fill="none" /><path transform="matrix(1 0 0 -1 0 842)" d="M280.35 769L280.35 752" stroke="#000000" stroke-width="1" fill="none" /><path transform="matrix(1 0 0 -1 0 842)" d="M280.35 752L280.35 735" stroke="#000000" stroke-width="1" fill="none" /><path transform="matrix(1 0 0 -1 0 842)" d="M280.35 735L280.35 718" stroke="#000000" stroke-width="1" fill="none" /><path transform="matrix(1 0 0 -1 0 842)" d="M280.35 718L280.35 599" stroke="#000000" stroke-width="1" fill="none" /><path transform="matrix(1 0 0 -1 0 842)" d="M280.35 599L280.35 583" stroke="#AAAAAA" stroke-width="1" fill="none" /><path transform="matrix(1 0 0 -1 0 842)" d="M280.35 583L280.35 521" stroke="#000000" stroke-width="1" fill="none" /><path transform="matrix(1 0 0 -1 0 842)" d="M280.35 521L280.35 505" stroke="#000000" stroke-width="1" fill="none" /><path transform="matrix(1 0 0 -1 0 842)" d="M280.35 505L280.35 389" stroke="#000000" stroke-width="1" fill="none" /><path transform="matrix(1 0 0 -1 0 842)" d="M280.35 389L280.35 373" stroke="#AAAAAA" stroke-width="1" fill="none" /><path transform="matrix(1 0 0 -1 0 842)" d="M280.35 373L280.35 344" stroke="#000000" stroke-width="1" fill="none" /><path transform="matrix(1 0 0 -1 0 842)" d="M280.35 344L280.35 327" stroke="#000000" stroke-width="1" fill="none" /><path transform="matrix(1 0 0 -1 0 842)" d="M280.35 327L280.35 311" stroke="#000000" stroke-width="1" fill="none" /><path transform="matrix(1 0 0 -1 0 842)" d="M280.35 311L280.35 294" stroke="#000000" stroke-width="1" fill="none" /><path transform="matrix(1 0 0 -1 0 842)" d="M280.35 294L280.35 243" stroke="#000000" stroke-width="1" fill="none" /><path transform="matrix(1 0 0 -1 0 842)" d="M280.35 243L280.35 227" stroke="#AAAAAA" stroke-width="1" fill="none" /><path transform="matrix(1 0 0 -1 0 842)" d="M280.35 227L280.35 198" stroke="#000000" stroke-width="1" fill="none" /><path transform="matrix(1 0 0 -1 0 842)" d="M280.35 198L280.35 181" stroke="#000000" stroke-width="1" fill="none" /><path transform="matrix(1 0 0 -1 0 842)" d="M280.35 181L280.35 165" stroke="#000000" stroke-width="1" fill="none" /><path transform="matrix(1 0 0 -1 0 842)" d="M280.35 165L280.35 149" stroke="#000000" stroke-width="1" fill="none" /><path transform="matrix(1 0 0 -1 0 842)" d="M280.35 149L280.35 133" stroke="#000000" stroke-width="1" fill="none" /><path transform="matrix(1 0 0 -1 0 842)" d="M280.35 133L280.35 83.5" stroke="#000000" stroke-width="1" fill="none" /><path transform="matrix(1 0 0 -1 0 842)" d="M329.35 786L329.35 769" stroke="#000000" stroke-width="1" fill="none" /><path transform="matrix(1 0 0 -1 0 842)" d="M329.35 769L329.35 752" stroke="#000000" stroke-width="1" fill="none" /><path transform="matrix(1 0 0 -1 0 842)" d="M329.35 752L329.35 735" stroke="#000000" stroke-width="1" fill="none" /><path transform="matrix(1 0 0 -1 0 842)" d="M329.35 735L329.35 718" stroke="#000000" stroke-width="1" fill="none" /><path transform="matrix(1 0 0 -1 0 842)" d="M329.35 718L329.35 701" stroke="#000000" stroke-width="1" fill="none" /><path transform="matrix(1 0 0 -1 0 842)" d="M329.35 701L329.35 684" stroke="#000000" stroke-width="1" fill="none" /><path transform="matrix(1 0 0 -1 0 842)" d="M329.35 684L329.35 599" stroke="#000000" stroke-width="1" fill="none" /><path transform="matrix(1 0 0 -1 0 842)" d="M329.35 599L329.35 583" stroke="#AAAAAA" stroke-width="1" fill="none" /><path transform="matrix(1 0 0 -1 0 842)" d="M329.35 583L329.35 521" stroke="#000000" stroke-width="1" fill="none" /><path transform="matrix(1 0 0 -1 0 842)" d="M329.35 521L329.35 505" stroke="#000000" stroke-width="1" fill="none" /><path transform="matrix(1 0 0 -1 0 842)" d="M329.35 505L329.35 489" stroke="#000000" stroke-width="1" fill="none" /><path transform="matrix(1 0 0 -1 0 842)" d="M329.35 489L329.35 473" stroke="#000000" stroke-width="1" fill="none" /><path transform="matrix(1 0 0 -1 0 842)" d="M329.35 473L329.35 389" stroke="#000000" stroke-width="1" fill="none" /><path transform="matrix(1 0 0 -1 0 842)" d="M329.35 389L329.35 373" stroke="#AAAAAA" stroke-width="1" fill="none" /><path transform="matrix(1 0 0 -1 0 842)" d="M329.35 373L329.35 344" stroke="#000000" stroke-width="1" fill="none" /><path transform="matrix(1 0 0 -1 0 842)" d="M329.35 344L329.35 327" stroke="#000000" stroke-width="1" fill="none" /><path transform="matrix(1 0 0 -1 0 842)" d="M329.35 327L329.35 311" stroke="#000000" stroke-width="1" fill="none" /><path transform="matrix(1 0 0 -1 0 842)" d="M329.35 311L329.35 294" stroke="#000000" stroke-width="1" fill="none" /><path transform="matrix(1 0 0 -1 0 842)" d="M329.35 294L329.35 277" stroke="#000000" stroke-width="1" fill="none" /><path transform="matrix(1 0 0 -1 0 842)" d="M329.35 277L329.35 243" stroke="#000000" stroke-width="1" fill="none" /><path transform="matrix(1 0 0 -1 0 842)" d="M329.35 243L329.35 227" stroke="#AAAAAA" stroke-width="1" fill="none" /><path transform="matrix(1 0 0 -1 0 842)" d="M329.35 227L329.35 198" stroke="#000000" stroke-width="1" fill="none" /><path transform="matrix(1 0 0 -1 0 842)" d="M329.35 198L329.35 181" stroke="#000000" stroke-width="1" fill="none" /><path transform="matrix(1 0 0 -1 0 842)" d="M329.35 181L329.35 165" stroke="#000000" stroke-width="1" fill="none" /><path transform="matrix(1 0 0 -1 0 842)" d="M329.35 165L329.35 149" stroke="#000000" stroke-width="1" fill="none" /><path transform="matrix(1 0 0 -1 0 842)" d="M329.35 149L329.35 133" stroke="#000000" stroke-width="1" fill="none" /><path transform="matrix(1 0 0 -1 0 842)" d="M329.35 133L329.35 117" stroke="#000000" stroke-width="1" fill="none" /><path transform="matrix(1 0 0 -1 0 842)" d="M329.35 117L329.35 83.5" stroke="#000000" stroke-width="1" fill="none" /><path transform="matrix(1 0 0 -1 0 842)" d="M378.35 786L378.35 769" stroke="#000000" stroke-width="1" fill="none" /><path transform="matrix(1 0 0 -1 0 842)" d="M378.35 769L378.35 752" stroke="#000000" stroke-width="1" fill="none" /><path transform="matrix(1 0 0 -1 0 842)" d="M378.35 752L378.35 735" stroke="#000000" stroke-width="1" fill="none" /><path transform="matrix(1 0 0 -1 0 842)" d="M378.35 735L378.35 718" stroke="#000000" stroke-width="1" fill="none" /><path transform="matrix(1 0 0 -1 0 842)" d="M378.35 718L378.35 701" stroke="#000000" stroke-width="1" fill="none" /><path transform="matrix(1 0 0 -1 0 842)" d="M378.35 701L378.35 684" stroke="#000000" stroke-width="1" fill="none" /><path transform="matrix(1 0 0 -1 0 842)" d="M378.35 684L378.35 667" stroke="#000000" stroke-width="1" fill="none" /><path transform="matrix(1 0 0 -1 0 842)" d="M378.35 667L378.35 650" stroke="#000000" stroke-width="1" fill="none" /><path transform="matrix(1 0 0 -1 0 842)" d="M378.35 650L378.35 633" stroke="#000000" stroke-width="1" fill="none" /><path transform="matrix(1 0 0 -1 0 842)" d="M378.35 633L378.35 616" stroke="#000000" stroke-width="1" fill="none" /><path transform="matrix(1 0 0 -1 0 842)" d="M378.35 616L378.35 599" stroke="#000000" stroke-width="1" fill="none" /><path transform="matrix(1 0 0 -1 0 842)" d="M378.35 599L378.35 583" stroke="#AAAAAA" stroke-width="1" fill="none" /><path transform="matrix(1 0 0 -1 0 842)" d="M378.35 583L378.35 505" stroke="#000000" stroke-width="1" fill="none" /><path transform="matrix(1 0 0 -1 0 842)" d="M378.35 505L378.35 489" stroke="#000000" stroke-width="1" fill="none" /><path transform="matrix(1 0 0 -1 0 842)" d="M378.35 489L378.35 473" stroke="#000000" stroke-width="1" fill="none" /><path transform="matrix(1 0 0 -1 0 842)" d="M378.35 473L378.35 456" stroke="#000000" stroke-width="1" fill="none" /><path transform="matrix(1 0 0 -1 0 842)" d="M378.35 456L378.35 439" stroke="#000000" stroke-width="1" fill="none" /><path transform="matrix(1 0 0 -1 0 842)" d="M378.35 439L378.35 422" stroke="#000000" stroke-width="1" fill="none" /><path transform="matrix(1 0 0 -1 0 842)" d="M378.35 422L378.35 405" stroke="#000000" stroke-width="1" fill="none" /><path transform="matrix(1 0 0 -1 0 842)" d="M378.35 405L378.35 389" stroke="#000000" stroke-width="1" fill="none" /><path transform="matrix(1 0 0 -1 0 842)" d="M378.35 389L378.35 373" stroke="#AAAAAA" stroke-width="1" fill="none" /><path transform="matrix(1 0 0 -1 0 842)" d="M378.35 373L378.35 344" stroke="#000000" stroke-width="1" fill="none" /><path transform="matrix(1 0 0 -1 0 842)" d="M378.35 344L378.35 327" stroke="#000000" stroke-width="1" fill="none" /><path transform="matrix(1 0 0 -1 0 842)" d="M378.35 327L378.35 311" stroke="#000000" stroke-width="1" fill="none" /><path transform="matrix(1 0 0 -1 0 842)" d="M378.35 311L378.35 294" stroke="#000000" stroke-width="1" fill="none" /><path transform="matrix(1 0 0 -1 0 842)" d="M378.35 294L378.35 277" stroke="#000000" stroke-width="1" fill="none" /><path transform="matrix(1 0 0 -1 0 842)" d="M378.35 277L378.35 260" stroke="#000000" stroke-width="1" fill="none" /><path transform="matrix(1 0 0 -1 0 842)" d="M378.35 260L378.35 243" stroke="#000000" stroke-width="1" fill="none" /><path transform="matrix(1 0 0 -1 0 842)" d="M378.35 243L378.35 227" stroke="#AAAAAA" stroke-width="1" fill="none" /><path transform="matrix(1 0 0 -1 0 842)" d="M378.35 227L378.35 198" stroke="#000000" stroke-width="1" fill="none" /><path transform="matrix(1 0 0 -1 0 842)" d="M378.35 198L378.35 181" stroke="#000000" stroke-width="1" fill="none" /><path transform="matrix(1 0 0 -1 0 842)" d="M378.35 181L378.35 165" stroke="#000000" stroke-width="1" fill="none" /><path transform="matrix(1 0 0 -1 0 842)" d="M378.35 165L378.35 149" stroke="#000000" stroke-width="1" fill="none" /><path transform="matrix(1 0 0 -1 0 842)" d="M378.35 149L378.35 133" stroke="#000000" stroke-width="1" fill="none" /><path transform="matrix(1 0 0 -1 0 842)" d="M378.35 133L378.35 117" stroke="#000000" stroke-width="1" fill="none" /><path transform="matrix(1 0 0 -1 0 842)" d="M378.35 117L378.35 101" stroke="#000000" stroke-width="1" fill="none" /><path transform="matrix(1 0 0 -1 0 842)" d="M378.35 101L378.35 83.5" stroke="#000000" stroke-width="1" fill="none" /><path transform="matrix(1 0 0 -1 0 842)" d="M49.85 786L231.35 786" stroke="#000000" stroke-width="1" fill="none" /><path transform="matrix(1 0 0 -1 0 842)" d="M231.35 786L280.35 786" stroke="#000000" stroke-width="1" fill="none" /><path transform="matrix(1 0 0 -1 0 842)" d="M280.35 786L329.35 786" stroke="#000000" stroke-width="1" fill="none" /><path transform="matrix(1 0 0 -1 0 842)" d="M329.35 786L378.35 786" stroke="#000000" stroke-width="1" fill="none" /><path transform="matrix(1 0 0 -1 0 842)" d="M378.35 786L428.0938 786" stroke="#000000" stroke-width="1" fill="none" /><path transform="matrix(1 0 0 -1 0 842)" d="M49.85 769L231.35 769" stroke="#000000" stroke-width="1" fill="none" /><path transform="matrix(1 0 0 -1 0 842)" d="M231.35 769L280.35 769" stroke="#000000" stroke-width="1" fill="none" /><path transform="matrix(1 0 0 -1 0 842)" d="M280.35 769L329.35 769" stroke="#000000" stroke-width="1" fill="none" /><path transform="matrix(1 0 0 -1 0 842)" d="M329.35 769L378.35 769" stroke="#000000" stroke-width="1" fill="none" /><path transform="matrix(1 0 0 -1 0 842)" d="M378.35 769L428.0938 769" stroke="#000000" stroke-width="1" fill="none" /><path transform="matrix(1 0 0 -1 0 842)" d="M49.85 752L280.35 752" stroke="#000000" stroke-width="1" fill="none" /><path transform="matrix(1 0 0 -1 0 842)" d="M280.35 752L329.35 752" stroke="#000000" stroke-width="1" fill="none" /><path transform="matrix(1 0 0 -1 0 842)" d="M329.35 752L378.35 752" stroke="#000000" stroke-width="1" fill="none" /><path transform="matrix(1 0 0 -1 0 842)" d="M378.35 752L428.0938 752" stroke="#000000" stroke-width="1" fill="none" /><path transform="matrix(1 0 0 -1 0 842)" d="M49.85 735L280.35 735" stroke="#000000" stroke-width="1" fill="none" /><path transform="matrix(1 0 0 -1 0 842)" d="M280.35 735L329.35 735" stroke="#000000" stroke-width="1" fill="none" /><path transform="matrix(1 0 0 -1 0 842)" d="M329.35 735L378.35 735" stroke="#000000" stroke-width="1" fill="none" /><path transform="matrix(1 0 0 -1 0 842)" d="M378.35 735L428.0938 735" stroke="#000000" stroke-width="1" fill="none" /><path transform="matrix(1 0 0 -1 0 842)" d="M49.85 718L280.35 718" stroke="#000000" stroke-width="1" fill="none" /><path transform="matrix(1 0 0 -1 0 842)" d="M280.35 718L329.35 718" stroke="#000000" stroke-width="1" fill="none" /><path transform="matrix(1 0 0 -1 0 842)" d="M329.35 718L378.35 718" stroke="#000000" stroke-width="1" fill="none" /><path transform="matrix(1 0 0 -1 0 842)" d="M378.35 718L428.0938 718" stroke="#000000" stroke-width="1" fill="none" /><path transform="matrix(1 0 0 -1 0 842)" d="M49.85 701L329.35 701" stroke="#000000" stroke-width="1" fill="none" /><path transform="matrix(1 0 0 -1 0 842)" d="M329.35 701L378.35 701" stroke="#000000" stroke-width="1" fill="none" /><path transform="matrix(1 0 0 -1 0 842)" d="M378.35 701L428.0938 701" stroke="#000000" stroke-width="1" fill="none" /><path transform="matrix(1 0 0 -1 0 842)" d="M49.85 684L329.35 684" stroke="#000000" stroke-width="1" fill="none" /><path transform="matrix(1 0 0 -1 0 842)" d="M329.35 684L378.35 684" stroke="#000000" stroke-width="1" fill="none" /><path transform="matrix(1 0 0 -1 0 842)" d="M378.35 684L428.0938 684" stroke="#000000" stroke-width="1" fill="none" /><path transform="matrix(1 0 0 -1 0 842)" d="M49.85 667L378.35 667" stroke="#000000" stroke-width="1" fill="none" /><path transform="matrix(1 0 0 -1 0 842)" d="M378.35 667L428.0938 667" stroke="#000000" stroke-width="1" fill="none" /><path transform="matrix(1 0 0 -1 0 842)" d="M49.85 650L378.35 650" stroke="#000000" stroke-width="1" fill="none" /><path transform="matrix(1 0 0 -1 0 842)" d="M378.35 650L428.0938 650" stroke="#000000" stroke-width="1" fill="none" /><path transform="matrix(1 0 0 -1 0 842)" d="M49.85 633L378.35 633" stroke="#000000" stroke-width="1" fill="none" /><path transform="matrix(1 0 0 -1 0 842)" d="M378.35 633L428.0938 633" stroke="#000000" stroke-width="1" fill="none" /><path transform="matrix(1 0 0 -1 0 842)" d="M49.85 616L378.35 616" stroke="#000000" stroke-width="1" fill="none" /><path transform="matrix(1 0 0 -1 0 842)" d="M378.35 616L428.0938 616" stroke="#000000" stroke-width="1" fill="none" /><path transform="matrix(1 0 0 -1 0 842)" d="M49.85 599L378.35 599" stroke="#000000" stroke-width="1" fill="none" /><path transform="matrix(1 0 0 -1 0 842)" d="M378.35 599L428.0938 599" stroke="#000000" stroke-width="1" fill="none" /><path transform="matrix(1 0 0 -1 0 842)" d="M49.85 583L428.0938 583" stroke="#000000" stroke-width="1" fill="none" /><path transform="matrix(1 0 0 -1 0 842)" d="M49.85 554L428.0938 554" stroke="#000000" stroke-width="1" fill="none" /><path transform="matrix(1 0 0 -1 0 842)" d="M49.85 538L428.0938 538" stroke="#000000" stroke-width="1" fill="none" /><path transform="matrix(1 0 0 -1 0 842)" d="M49.85 521L280.35 521" stroke="#000000" stroke-width="1" fill="none" /><path transform="matrix(1 0 0 -1 0 842)" d="M280.35 521L329.35 521" stroke="#000000" stroke-width="1" fill="none" /><path transform="matrix(1 0 0 -1 0 842)" d="M329.35 521L428.0938 521" stroke="#000000" stroke-width="1" fill="none" /><path transform="matrix(1 0 0 -1 0 842)" d="M49.85 505L280.35 505" stroke="#000000" stroke-width="1" fill="none" /><path transform="matrix(1 0 0 -1 0 842)" d="M280.35 505L329.35 505" stroke="#000000" stroke-width="1" fill="none" /><path transform="matrix(1 0 0 -1 0 842)" d="M329.35 505L378.35 505" stroke="#000000" stroke-width="1" fill="none" /><path transform="matrix(1 0 0 -1 0 842)" d="M378.35 505L428.0938 505" stroke="#000000" stroke-width="1" fill="none" /><path transform="matrix(1 0 0 -1 0 842)" d="M49.85 489L329.35 489" stroke="#000000" stroke-width="1" fill="none" /><path transform="matrix(1 0 0 -1 0 842)" d="M329.35 489L378.35 489" stroke="#000000" stroke-width="1" fill="none" /><path transform="matrix(1 0 0 -1 0 842)" d="M378.35 489L428.0938 489" stroke="#000000" stroke-width="1" fill="none" /><path transform="matrix(1 0 0 -1 0 842)" d="M49.85 473L329.35 473" stroke="#000000" stroke-width="1" fill="none" /><path transform="matrix(1 0 0 -1 0 842)" d="M329.35 473L378.35 473" stroke="#000000" stroke-width="1" fill="none" /><path transform="matrix(1 0 0 -1 0 842)" d="M378.35 473L428.0938 473" stroke="#000000" stroke-width="1" fill="none" /><path transform="matrix(1 0 0 -1 0 842)" d="M49.85 456L378.35 456" stroke="#000000" stroke-width="1" fill="none" /><path transform="matrix(1 0 0 -1 0 842)" d="M378.35 456L428.0938 456" stroke="#000000" stroke-width="1" fill="none" /><path transform="matrix(1 0 0 -1 0 842)" d="M49.85 439L378.35 439" stroke="#000000" stroke-width="1" fill="none" /><path transform="matrix(1 0 0 -1 0 842)" d="M378.35 439L428.0938 439" stroke="#000000" stroke-width="1" fill="none" /><path transform="matrix(1 0 0 -1 0 842)" d="M49.85 422L378.35 422" stroke="#000000" stroke-width="1" fill="none" /><path transform="matrix(1 0 0 -1 0 842)" d="M378.35 422L428.0938 422" stroke="#000000" stroke-width="1" fill="none" /><path transform="matrix(1 0 0 -1 0 842)" d="M49.85 405L378.35 405" stroke="#000000" stroke-width="1" fill="none" /><path transform="matrix(1 0 0 -1 0 842)" d="M378.35 405L428.0938 405" stroke="#000000" stroke-width="1" fill="none" /><path transform="matrix(1 0 0 -1 0 842)" d="M49.85 389L378.35 389" stroke="#000000" stroke-width="1" fill="none" /><path transform="matrix(1 0 0 -1 0 842)" d="M378.35 389L428.0938 389" stroke="#000000" stroke-width="1" fill="none" /><path transform="matrix(1 0 0 -1 0 842)" d="M49.85 373L428.0938 373" stroke="#000000" stroke-width="1" fill="none" /><path transform="matrix(1 0 0 -1 0 842)" d="M49.85 344L231.35 344" stroke="#000000" stroke-width="1" fill="none" /><path transform="matrix(1 0 0 -1 0 842)" d="M231.35 344L280.35 344" stroke="#000000" stroke-width="1" fill="none" /><path transform="matrix(1 0 0 -1 0 842)" d="M280.35 344L329.35 344" stroke="#000000" stroke-width="1" fill="none" /><path transform="matrix(1 0 0 -1 0 842)" d="M329.35 344L378.35 344" stroke="#000000" stroke-width="1" fill="none" /><path transform="matrix(1 0 0 -1 0 842)" d="M378.35 344L428.0938 344" stroke="#000000" stroke-width="1" fill="none" /><path transform="matrix(1 0 0 -1 0 842)" d="M49.85 327L231.35 327" stroke="#000000" stroke-width="1" fill="none" /><path transform="matrix(1 0 0 -1 0 842)" d="M231.35 327L280.35 327" stroke="#000000" stroke-width="1" fill="none" /><path transform="matrix(1 0 0 -1 0 842)" d="M280.35 327L329.35 327" stroke="#000000" stroke-width="1" fill="none" /><path transform="matrix(1 0 0 -1 0 842)" d="M329.35 327L378.35 327" stroke="#000000" stroke-width="1" fill="none" /><path transform="matrix(1 0 0 -1 0 842)" d="M378.35 327L428.0938 327" stroke="#000000" stroke-width="1" fill="none" /><path transform="matrix(1 0 0 -1 0 842)" d="M49.85 311L231.35 311" stroke="#000000" stroke-width="1" fill="none" /><path transform="matrix(1 0 0 -1 0 842)" d="M231.35 311L280.35 311" stroke="#000000" stroke-width="1" fill="none" /><path transform="matrix(1 0 0 -1 0 842)" d="M280.35 311L329.35 311" stroke="#000000" stroke-width="1" fill="none" /><path transform="matrix(1 0 0 -1 0 842)" d="M329.35 311L378.35 311" stroke="#000000" stroke-width="1" fill="none" /><path transform="matrix(1 0 0 -1 0 842)" d="M378.35 311L428.0938 311" stroke="#000000" stroke-width="1" fill="none" /><path transform="matrix(1 0 0 -1 0 842)" d="M49.85 294L280.35 294" stroke="#000000" stroke-width="1" fill="none" /><path transform="matrix(1 0 0 -1 0 842)" d="M280.35 294L329.35 294" stroke="#000000" stroke-width="1" fill="none" /><path transform="matrix(1 0 0 -1 0 842)" d="M329.35 294L378.35 294" stroke="#000000" stroke-width="1" fill="none" /><path transform="matrix(1 0 0 -1 0 842)" d="M378.35 294L428.0938 294" stroke="#000000" stroke-width="1" fill="none" /><path transform="matrix(1 0 0 -1 0 842)" d="M49.85 277L329.35 277" stroke="#000000" stroke-width="1" fill="none" /><path transform="matrix(1 0 0 -1 0 842)" d="M329.35 277L378.35 277" stroke="#000000" stroke-width="1" fill="none" /><path transform="matrix(1 0 0 -1 0 842)" d="M378.35 277L428.0938 277" stroke="#000000" stroke-width="1" fill="none" /><path transform="matrix(1 0 0 -1 0 842)" d="M49.85 260L378.35 260" stroke="#000000" stroke-width="1" fill="none" /><path transform="matrix(1 0 0 -1 0 842)" d="M378.35 260L428.0938 260" stroke="#000000" stroke-width="1" fill="none" /><path transform="matrix(1 0 0 -1 0 842)" d="M49.85 243L378.35 243" stroke="#000000" stroke-width="1" fill="none" /><path transform="matrix(1 0 0 -1 0 842)" d="M378.35 243L428.0938 243" stroke="#000000" stroke-width="1" fill="none" /><path transform="matrix(1 0 0 -1 0 842)" d="M49.85 227L428.0938 227" stroke="#000000" stroke-width="1" fill="none" /><path transform="matrix(1 0 0 -1 0 842)" d="M49.85 198L231.35 198" stroke="#000000" stroke-width="1" fill="none" /><path transform="matrix(1 0 0 -1 0 842)" d="M231.35 198L280.35 198" stroke="#000000" stroke-width="1" fill="none" /><path transform="matrix(1 0 0 -1 0 842)" d="M280.35 198L329.35 198" stroke="#000000" stroke-width="1" fill="none" /><path transform="matrix(1 0 0 -1 0 842)" d="M329.35 198L378.35 198" stroke="#000000" stroke-width="1" fill="none" /><path transform="matrix(1 0 0 -1 0 842)" d="M378.35 198L428.0938 198" stroke="#000000" stroke-width="1" fill="none" /><path transform="matrix(1 0 0 -1 0 842)" d="M49.85 181L231.35 181" stroke="#000000" stroke-width="1" fill="none" /><path transform="matrix(1 0 0 -1 0 842)" d="M231.35 181L280.35 181" stroke="#000000" stroke-width="1" fill="none" /><path transform="matrix(1 0 0 -1 0 842)" d="M280.35 181L329.35 181" stroke="#000000" stroke-width="1" fill="none" /><path transform="matrix(1 0 0 -1 0 842)" d="M329.35 181L378.35 181" stroke="#000000" stroke-width="1" fill="none" /><path transform="matrix(1 0 0 -1 0 842)" d="M378.35 181L428.0938 181" stroke="#000000" stroke-width="1" fill="none" /><path transform="matrix(1 0 0 -1 0 842)" d="M49.85 165L280.35 165" stroke="#000000" stroke-width="1" fill="none" /><path transform="matrix(1 0 0 -1 0 842)" d="M280.35 165L329.35 165" stroke="#000000" stroke-width="1" fill="none" /><path transform="matrix(1 0 0 -1 0 842)" d="M329.35 165L378.35 165" stroke="#000000" stroke-width="1" fill="none" /><path transform="matrix(1 0 0 -1 0 842)" d="M378.35 165L428.0938 165" stroke="#000000" stroke-width="1" fill="none" /><path transform="matrix(1 0 0 -1 0 842)" d="M49.85 149L280.35 149" stroke="#000000" stroke-width="1" fill="none" /><path transform="matrix(1 0 0 -1 0 842)" d="M280.35 149L329.35 149" stroke="#000000" stroke-width="1" fill="none" /><path transform="matrix(1 0 0 -1 0 842)" d="M329.35 149L378.35 149" stroke="#000000" stroke-width="1" fill="none" /><path transform="matrix(1 0 0 -1 0 842)" d="M378.35 149L428.0938 149" stroke="#000000" stroke-width="1" fill="none" /><path transform="matrix(1 0 0 -1 0 842)" d="M49.85 133L280.35 133" stroke="#000000" stroke-width="1" fill="none" /><path transform="matrix(1 0 0 -1 0 842)" d="M280.35 133L329.35 133" stroke="#000000" stroke-width="1" fill="none" /><path transform="matrix(1 0 0 -1 0 842)" d="M329.35 133L378.35 133" stroke="#000000" stroke-width="1" fill="none" /><path transform="matrix(1 0 0 -1 0 842)" d="M378.35 133L428.0938 133" stroke="#000000" stroke-width="1" fill="none" /><path transform="matrix(1 0 0 -1 0 842)" d="M49.85 117L329.35 117" stroke="#000000" stroke-width="1" fill="none" /><path transform="matrix(1 0 0 -1 0 842)" d="M329.35 117L378.35 117" stroke="#000000" stroke-width="1" fill="none" /><path transform="matrix(1 0 0 -1 0 842)" d="M378.35 117L428.0938 117" stroke="#000000" stroke-width="1" fill="none" /><path transform="matrix(1 0 0 -1 0 842)" d="M49.85 101L378.35 101" stroke="#000000" stroke-width="1" fill="none" /><path transform="matrix(1 0 0 -1 0 842)" d="M378.35 101L428.0938 101" stroke="#000000" stroke-width="1" fill="none" /><path transform="matrix(1 0 0 -1 0 842)" d="M50.35 786.5L50.35 599" stroke="#000000" stroke-width="1" fill="none" /><path transform="matrix(1 0 0 -1 0 842)" d="M50.35 599L50.35 583" stroke="#AAAAAA" stroke-width="1" fill="none" /><path transform="matrix(1 0 0 -1 0 842)" d="M50.35 583L50.35 389" stroke="#000000" stroke-width="1" fill="none" /><path transform="matrix(1 0 0 -1 0 842)" d="M50.35 389L50.35 373" stroke="#AAAAAA" stroke-width="1" fill="none" /><path transform="matrix(1 0 0 -1 0 842)" d="M50.35 373L50.35 243" stroke="#000000" stroke-width="1" fill="none" /><path transform="matrix(1 0 0 -1 0 842)" d="M50.35 243L50.35 227" stroke="#AAAAAA" stroke-width="1" fill="none" /><path transform="matrix(1 0 0 -1 0 842)" d="M50.35 227L50.35 83.5" stroke="#000000" stroke-width="1" fill="none" /><path transform="matrix(1 0 0 -1 0 842)" d="M427.5938 786.5L427.5938 769" stroke="#000000" stroke-width="1" fill="none" /><path transform="matrix(1 0 0 -1 0 842)" d="M427.5938 769L427.5938 752" stroke="#000000" stroke-width="1" fill="none" /><path transform="matrix(1 0 0 -1 0 842)" d="M427.5938 752L427.5938 735" stroke="#000000" stroke-width="1" fill="none" /><path transform="matrix(1 0 0 -1 0 842)" d="M427.5938 735L427.5938 718" stroke="#000000" stroke-width="1" fill="none" /><path transform="matrix(1 0 0 -1 0 842)" d="M427.5938 718L427.5938 701" stroke="#000000" stroke-width="1" fill="none" /><path transform="matrix(1 0 0 -1 0 842)" d="M427.5938 701L427.5938 684" stroke="#000000" stroke-width="1" fill="none" /><path transform="matrix(1 0 0 -1 0 842)" d="M427.5938 684L427.5938 667" stroke="#000000" stroke-width="1" fill="none" /><path transform="matrix(1 0 0 -1 0 842)" d="M427.5938 667L427.5938 650" stroke="#000000" stroke-width="1" fill="none" /><path transform="matrix(1 0 0 -1 0 842)" d="M427.5938 650L427.5938 633" stroke="#000000" stroke-width="1" fill="none" /><path transform="matrix(1 0 0 -1 0 842)" d="M427.5938 633L427.5938 616" stroke="#000000" stroke-width="1" fill="none" /><path transform="matrix(1 0 0 -1 0 842)" d="M427.5938 616L427.5938 599" stroke="#000000" stroke-width="1" fill="none" /><path transform="matrix(1 0 0 -1 0 842)" d="M427.5938 599L427.5938 583" stroke="#AAAAAA" stroke-width="1" fill="none" /><path transform="matrix(1 0 0 -1 0 842)" d="M427.5938 583L427.5938 505" stroke="#000000" stroke-width="1" fill="none" /><path transform="matrix(1 0 0 -1 0 842)" d="M427.5938 505L427.5938 489" stroke="#000000" stroke-width="1" fill="none" /><path transform="matrix(1 0 0 -1 0 842)" d="M427.5938 489L427.5938 473" stroke="#000000" stroke-width="1" fill="none" /><path transform="matrix(1 0 0 -1 0 842)" d="M427.5938 473L427.5938 456" stroke="#000000" stroke-width="1" fill="none" /><path transform="matrix(1 0 0 -1 0 842)" d="M427.5938 456L427.5938 439" stroke="#000000" stroke-width="1" fill="none" /><path transform="matrix(1 0 0 -1 0 842)" d="M427.5938 439L427.5938 422" stroke="#000000" stroke-width="1" fill="none" /><path transform="matrix(1 0 0 -1 0 842)" d="M427.5938 422L427.5938 405" stroke="#000000" stroke-width="1" fill="none" /><path transform="matrix(1 0 0 -1 0 842)" d="M427.5938 405L427.5938 389" stroke="#000000" stroke-width="1" fill="none" /><path transform="matrix(1 0 0 -1 0 842)" d="M427.5938 389L427.5938 373" stroke="#AAAAAA" stroke-width="1" fill="none" /><path transform="matrix(1 0 0 -1 0 842)" d="M427.5938 373L427.5938 294" stroke="#000000" stroke-width="1" fill="none" /><path transform="matrix(1 0 0 -1 0 842)" d="M427.5938 294L427.5938 277" stroke="#000000" stroke-width="1" fill="none" /><path transform="matrix(1 0 0 -1 0 842)" d="M427.5938 277L427.5938 260" stroke="#000000" stroke-width="1" fill="none" /><path transform="matrix(1 0 0 -1 0 842)" d="M427.5938 260L427.5938 243" stroke="#000000" stroke-width="1" fill="none" /><path transform="matrix(1 0 0 -1 0 842)" d="M427.5938 243L427.5938 227" stroke="#AAAAAA" stroke-width="1" fill="none" /><path transform="matrix(1 0 0 -1 0 842)" d="M427.5938 227L427.5938 165" stroke="#000000" stroke-width="1" fill="none" /><path transform="matrix(1 0 0 -1 0 842)" d="M427.5938 165L427.5938 149" stroke="#000000" stroke-width="1" fill="none" /><path transform="matrix(1 0 0 -1 0 842)" d="M427.5938 149L427.5938 133" stroke="#000000" stroke-width="1" fill="none" /><path transform="matrix(1 0 0 -1 0 842)" d="M427.5938 133L427.5938 117" stroke="#000000" stroke-width="1" fill="none" /><path transform="matrix(1 0 0 -1 0 842)" d="M427.5938 117L427.5938 101" stroke="#000000" stroke-width="1" fill="none" /><path transform="matrix(1 0 0 -1 0 842)" d="M427.5938 101L427.5938 83.5" stroke="#000000" stroke-width="1" fill="none" /><path transform="matrix(1 0 0 -1 0 842)" d="M49.85 84L378.35 84" stroke="#000000" stroke-width="1" fill="none" /><path transform="matrix(1 0 0 -1 0 842)" d="M378.35 84L428.0938 84" stroke="#000000" stroke-width="1" fill="none" /></g><g clip-path="url(#118)"></g></g></g></g></svg>