<svg xmlns="http://www.w3.org/2000/svg" xmlns:xlink="http://www.w3.org/1999/xlink" id="body_3" preserveAspectRatio="xMinYMin meet" viewBox="0 0 793 1123"><defs><clipPath id="1"><path d="M0 842L0 0L0 0L595 0L595 0L595 842L595 842L0 842z" /></clipPath><clipPath id="2"><path d="M0 842L595 842L595 842L595 0L595 0L0 0z" /></clipPath><clipPath id="3"><path d="M48.35 222L429.35 222L429.35 222L429.35 54L429.35 54L48.35 54z" /></clipPath><clipPath id="4"><path d="M50.85 100.5L230.85 100.5L230.85 100.5L230.85 72.5L230.85 72.5L50.85 72.5z" /></clipPath><clipPath id="5"><path d="M231.85 100.5L279.85 100.5L279.85 100.5L279.85 72.5L279.85 72.5L231.85 72.5z" /></clipPath><clipPath id="6"><path d="M280.85 100.5L328.85 100.5L328.85 100.5L328.85 72.5L328.85 72.5L280.85 72.5z" /></clipPath><clipPath id="7"><path d="M329.85 100.5L377.85 100.5L377.85 100.5L377.85 72.5L377.85 72.5L329.85 72.5z" /></clipPath><clipPath id="8"><path d="M378.85 100.5L427.0938 100.5L427.0938 100.5L427.0938 72.5L427.0938 72.5L378.85 72.5z" /></clipPath><clipPath id="9"><path d="M50.85 117.5L230.85 117.5L230.85 117.5L230.85 101.5L230.85 101.5L50.85 101.5z" /></clipPath><clipPath id="10"><path d="M231.85 117.5L279.85 117.5L279.85 117.5L279.85 101.5L279.85 101.5L231.85 101.5z" /></clipPath><clipPath id="11"><path d="M280.85 117.5L328.85 117.5L328.85 117.5L328.85 101.5L328.85 101.5L280.85 101.5z" /></clipPath><clipPath id="12"><path d="M329.85 117.5L377.85 117.5L377.85 117.5L377.85 101.5L377.85 101.5L329.85 101.5z" /></clipPath><clipPath id="13"><path d="M48.35 222L429.35 222L429.35 222L429.35 54L429.35 54L48.35 54z" /></clipPath><clipPath id="14"><path d="M50.85 134.5L230.85 134.5L230.85 134.5L230.85 118.5L230.85 118.5L50.85 118.5z" /></clipPath><clipPath id="15"><path d="M48.35 222L429.35 222L429.35 222L429.35 54L429.35 54L48.35 54z" /></clipPath><clipPath id="16"><path d="M280.85 134.5L328.85 134.5L328.85 134.5L328.85 118.5L328.85 118.5L280.85 118.5z" /></clipPath><clipPath id="17"><path d="M329.85 134.5L377.85 134.5L377.85 134.5L377.85 118.5L377.85 118.5L329.85 118.5z" /></clipPath><clipPath id="18"><path d="M48.35 222L429.35 222L429.35 222L429.35 54L429.35 54L48.35 54z" /></clipPath><clipPath id="19"><path d="M50.85 151.5L230.85 151.5L230.85 151.5L230.85 135.5L230.85 135.5L50.85 135.5z" /></clipPath><clipPath id="20"><path d="M48.35 222L429.35 222L429.35 222L429.35 54L429.35 54L48.35 54z" /></clipPath><clipPath id="21"><path d="M280.85 151.5L328.85 151.5L328.85 151.5L328.85 135.5L328.85 135.5L280.85 135.5z" /></clipPath><clipPath id="22"><path d="M329.85 151.5L377.85 151.5L377.85 151.5L377.85 135.5L377.85 135.5L329.85 135.5z" /></clipPath><clipPath id="23"><path d="M378.85 151.5L427.0938 151.5L427.0938 151.5L427.0938 135.5L427.0938 135.5L378.85 135.5z" /></clipPath><clipPath id="24"><path d="M50.85 168.5L230.85 168.5L230.85 168.5L230.85 152.5L230.85 152.5L50.85 152.5z" /></clipPath><clipPath id="25"><path d="M48.35 222L429.35 222L429.35 222L429.35 54L429.35 54L48.35 54z" /></clipPath><clipPath id="26"><path d="M280.85 168.5L328.85 168.5L328.85 168.5L328.85 152.5L328.85 152.5L280.85 152.5z" /></clipPath><clipPath id="27"><path d="M329.85 168.5L377.85 168.5L377.85 168.5L377.85 152.5L377.85 152.5L329.85 152.5z" /></clipPath><clipPath id="28"><path d="M378.85 168.5L427.0938 168.5L427.0938 168.5L427.0938 152.5L427.0938 152.5L378.85 152.5z" /></clipPath><clipPath id="29"><path d="M50.85 185.5L230.85 185.5L230.85 185.5L230.85 169.5L230.85 169.5L50.85 169.5z" /></clipPath><clipPath id="30"><path d="M48.35 222L429.35 222L429.35 222L429.35 54L429.35 54L48.35 54z" /></clipPath><clipPath id="31"><path d="M329.85 185.5L377.85 185.5L377.85 185.5L377.85 169.5L377.85 169.5L329.85 169.5z" /></clipPath><clipPath id="32"><path d="M378.85 185.5L427.0938 185.5L427.0938 185.5L427.0938 169.5L427.0938 169.5L378.85 169.5z" /></clipPath><clipPath id="33"><path d="M50.85 202.5L230.85 202.5L230.85 202.5L230.85 186.5L230.85 186.5L50.85 186.5z" /></clipPath><clipPath id="34"><path d="M48.35 222L429.35 222L429.35 222L429.35 54L429.35 54L48.35 54z" /></clipPath><clipPath id="35"><path d="M378.85 202.5L427.0938 202.5L427.0938 202.5L427.0938 186.5L427.0938 186.5L378.85 186.5z" /></clipPath><clipPath id="36"><path d="M50.85 219.5L230.85 219.5L230.85 219.5L230.85 203.5L230.85 203.5L50.85 203.5z" /></clipPath><clipPath id="37"><path d="M48.35 222L429.35 222L429.35 222L429.35 54L429.35 54L48.35 54z" /></clipPath><clipPath id="38"><path d="M378.85 219.5L427.0938 219.5L427.0938 219.5L427.0938 203.5L427.0938 203.5L378.85 203.5z" /></clipPath><clipPath id="39"><path d="M48.35 222L429.35 222L429.35 222L429.35 54L429.35 54L48.35 54z" /></clipPath><clipPath id="40"><path d="M290.6631 821L306.6631 821L306.6631 821L306.6631 799L306.6631 799L290.6631 799z" /></clipPath></defs><g transform="matrix(1.333333 0 0 1.333333 0 0)"><g><g clip-path="url(#1)"><g clip-path="url(#2)"><path transform="matrix(1 0 0 -1 0 842)" d="M0 842L595 842L595 842L595 0L595 0L0 0z" stroke="none" fill="#FFFFFE" fill-rule="winding" /></g><g clip-path="url(#3)"><path transform="matrix(1 0 0 -1 0 842)" d="M50.35 770L231.35 770L231.35 770L231.35 741L231.35 741L50.35 741z" stroke="none" fill="#FFFF00" fill-rule="winding" /><path transform="matrix(1 0 0 -1 0 842)" d="M231.35 770L280.35 770L280.35 770L280.35 741L280.35 741L231.35 741z" stroke="none" fill="#FFFFFE" fill-rule="winding" /><path transform="matrix(1 0 0 -1 0 842)" d="M280.35 770L329.35 770L329.35 770L329.35 741L329.35 741L280.35 741z" stroke="none" fill="#FFFFFE" fill-rule="winding" /><path transform="matrix(1 0 0 -1 0 842)" d="M329.35 770L378.35 770L378.35 770L378.35 741L378.35 741L329.35 741z" stroke="none" fill="#FFFFFE" fill-rule="winding" /><path transform="matrix(1 0 0 -1 0 842)" d="M378.35 770L427.5938 770L427.5938 770L427.5938 741L427.5938 741L378.35 741z" stroke="none" fill="#FFFFFE" fill-rule="winding" /><path transform="matrix(1 0 0 -1 0 842)" d="M50.35 741L231.35 741L231.35 741L231.35 724L231.35 724L50.35 724z" stroke="none" fill="#FFFFFE" fill-rule="winding" /><path transform="matrix(1 0 0 -1 0 842)" d="M231.35 741L280.35 741L280.35 741L280.35 724L280.35 724L231.35 724z" stroke="none" fill="#FFFFFE" fill-rule="winding" /><path transform="matrix(1 0 0 -1 0 842)" d="M280.35 741L329.35 741L329.35 741L329.35 724L329.35 724L280.35 724z" stroke="none" fill="#FFFFFE" fill-rule="winding" /><path transform="matrix(1 0 0 -1 0 842)" d="M329.35 741L378.35 741L378.35 741L378.35 724L378.35 724L329.35 724z" stroke="none" fill="#FFFFFE" fill-rule="winding" /><path transform="matrix(1 0 0 -1 0 842)" d="M378.35 741L427.5938 741L427.5938 741L427.5938 724L427.5938 724L378.35 724z" stroke="none" fill="#FFFFFE" fill-rule="winding" /><path transform="matrix(1 0 0 -1 0 842)" d="M50.35 724L231.35 724L231.35 724L231.35 707L231.35 707L50.35 707z" stroke="none" fill="#FFFFFE" fill-rule="winding" /><path transform="matrix(1 0 0 -1 0 842)" d="M231.35 724L280.35 724L280.35 724L280.35 707L280.35 707L231.35 707z" stroke="none" fill="#FFFFFE" fill-rule="winding" /><path transform="matrix(1 0 0 -1 0 842)" d="M280.35 724L329.35 724L329.35 724L329.35 707L329.35 707L280.35 707z" stroke="none" fill="#FFFFFE" fill-rule="winding" /><path transform="matrix(1 0 0 -1 0 842)" d="M329.35 724L378.35 724L378.35 724L378.35 707L378.35 707L329.35 707z" stroke="none" fill="#FFFFFE" fill-rule="winding" /><path transform="matrix(1 0 0 -1 0 842)" d="M378.35 724L427.5938 724L427.5938 724L427.5938 707L427.5938 707L378.35 707z" stroke="none" fill="#FFFFFE" fill-rule="winding" /><path transform="matrix(1 0 0 -1 0 842)" d="M50.35 707L231.35 707L231.35 707L231.35 690L231.35 690L50.35 690z" stroke="none" fill="#FFFFFE" fill-rule="winding" /><path transform="matrix(1 0 0 -1 0 842)" d="M231.35 707L280.35 707L280.35 707L280.35 690L280.35 690L231.35 690z" stroke="none" fill="#FFFFFE" fill-rule="winding" /><path transform="matrix(1 0 0 -1 0 842)" d="M280.35 707L329.35 707L329.35 707L329.35 690L329.35 690L280.35 690z" stroke="none" fill="#FFFFFE" fill-rule="winding" /><path transform="matrix(1 0 0 -1 0 842)" d="M329.35 707L378.35 707L378.35 707L378.35 690L378.35 690L329.35 690z" stroke="none" fill="#FFFFFE" fill-rule="winding" /><path transform="matrix(1 0 0 -1 0 842)" d="M378.35 707L427.5938 707L427.5938 707L427.5938 690L427.5938 690L378.35 690z" stroke="none" fill="#FFFFFE" fill-rule="winding" /><path transform="matrix(1 0 0 -1 0 842)" d="M50.35 690L231.35 690L231.35 690L231.35 673L231.35 673L50.35 673z" stroke="none" fill="#FFFFFE" fill-rule="winding" /><path transform="matrix(1 0 0 -1 0 842)" d="M231.35 690L280.35 690L280.35 690L280.35 673L280.35 673L231.35 673z" stroke="none" fill="#FFFFFE" fill-rule="winding" /><path transform="matrix(1 0 0 -1 0 842)" d="M280.35 690L329.35 690L329.35 690L329.35 673L329.35 673L280.35 673z" stroke="none" fill="#FFFFFE" fill-rule="winding" /><path transform="matrix(1 0 0 -1 0 842)" d="M329.35 690L378.35 690L378.35 690L378.35 673L378.35 673L329.35 673z" stroke="none" fill="#FFFFFE" fill-rule="winding" /><path transform="matrix(1 0 0 -1 0 842)" d="M378.35 690L427.5938 690L427.5938 690L427.5938 673L427.5938 673L378.35 673z" stroke="none" fill="#FFFFFE" fill-rule="winding" /><path transform="matrix(1 0 0 -1 0 842)" d="M50.35 673L231.35 673L231.35 673L231.35 656L231.35 656L50.35 656z" stroke="none" fill="#FFFFFE" fill-rule="winding" /><path transform="matrix(1 0 0 -1 0 842)" d="M231.35 673L280.35 673L280.35 673L280.35 656L280.35 656L231.35 656z" stroke="none" fill="#FFFFFE" fill-rule="winding" /><path transform="matrix(1 0 0 -1 0 842)" d="M280.35 673L329.35 673L329.35 673L329.35 656L329.35 656L280.35 656z" stroke="none" fill="#FFFFFE" fill-rule="winding" /><path transform="matrix(1 0 0 -1 0 842)" d="M329.35 673L378.35 673L378.35 673L378.35 656L378.35 656L329.35 656z" stroke="none" fill="#FFFFFE" fill-rule="winding" /><path transform="matrix(1 0 0 -1 0 842)" d="M378.35 673L427.5938 673L427.5938 673L427.5938 656L427.5938 656L378.35 656z" stroke="none" fill="#FFFFFE" fill-rule="winding" /><path transform="matrix(1 0 0 -1 0 842)" d="M50.35 656L231.35 656L231.35 656L231.35 639L231.35 639L50.35 639z" stroke="none" fill="#FFFFFE" fill-rule="winding" /><path transform="matrix(1 0 0 -1 0 842)" d="M231.35 656L280.35 656L280.35 656L280.35 639L280.35 639L231.35 639z" stroke="none" fill="#FFFFFE" fill-rule="winding" /><path transform="matrix(1 0 0 -1 0 842)" d="M280.35 656L329.35 656L329.35 656L329.35 639L329.35 639L280.35 639z" stroke="none" fill="#FFFFFE" fill-rule="winding" /><path transform="matrix(1 0 0 -1 0 842)" d="M329.35 656L378.35 656L378.35 656L378.35 639L378.35 639L329.35 639z" stroke="none" fill="#FFFFFE" fill-rule="winding" /><path transform="matrix(1 0 0 -1 0 842)" d="M378.35 656L427.5938 656L427.5938 656L427.5938 639L427.5938 639L378.35 639z" stroke="none" fill="#FFFFFE" fill-rule="winding" /><path transform="matrix(1 0 0 -1 0 842)" d="M50.35 639L231.35 639L231.35 639L231.35 622L231.35 622L50.35 622z" stroke="none" fill="#FFFFFE" fill-rule="winding" /><path transform="matrix(1 0 0 -1 0 842)" d="M231.35 639L280.35 639L280.35 639L280.35 622L280.35 622L231.35 622z" stroke="none" fill="#FFFFFE" fill-rule="winding" /><path transform="matrix(1 0 0 -1 0 842)" d="M280.35 639L329.35 639L329.35 639L329.35 622L329.35 622L280.35 622z" stroke="none" fill="#FFFFFE" fill-rule="winding" /><path transform="matrix(1 0 0 -1 0 842)" d="M329.35 639L378.35 639L378.35 639L378.35 622L378.35 622L329.35 622z" stroke="none" fill="#FFFFFE" fill-rule="winding" /><path transform="matrix(1 0 0 -1 0 842)" d="M378.35 639L427.5938 639L427.5938 639L427.5938 622L427.5938 622L378.35 622z" stroke="none" fill="#FFFFFE" fill-rule="winding" /><path transform="matrix(1 0 0 -1 0 842)" d="M50.35 786L231.35 786L231.35 786L231.35 770L231.35 770L50.35 770z" stroke="none" fill="#E73165" fill-rule="winding" fill-opacity="0" /><path transform="matrix(1 0 0 -1 0 842)" d="M231.35 786L280.35 786L280.35 786L280.35 770L280.35 770L231.35 770z" stroke="none" fill="#B4DE8C" fill-rule="winding" fill-opacity="0" /><path transform="matrix(1 0 0 -1 0 842)" d="M280.35 786L329.35 786L329.35 786L329.35 770L329.35 770L280.35 770z" stroke="none" fill="#BCEE3B" fill-rule="winding" fill-opacity="0" /><path transform="matrix(1 0 0 -1 0 842)" d="M329.35 786L378.35 786L378.35 786L378.35 770L378.35 770L329.35 770z" stroke="none" fill="#EC8DEE" fill-rule="winding" fill-opacity="0" /><path transform="matrix(1 0 0 -1 0 842)" d="M378.35 786L427.5938 786L427.5938 786L427.5938 770L427.5938 770L378.35 770z" stroke="none" fill="#7E8DEF" fill-rule="winding" fill-opacity="0" /></g><g clip-path="url(#4)"></g><g clip-path="url(#5)"></g><g clip-path="url(#6)"></g><g clip-path="url(#7)"></g><g clip-path="url(#8)"></g><g clip-path="url(#9)"></g><g clip-path="url(#10)"><path transform="matrix(1 0 0 -1 0 842)" d="M233.85 725.8274L276.6469 725.8274" stroke="#0000FE" stroke-width="0.6982422" fill="none" /></g><g clip-path="url(#11)"><path transform="matrix(1 0 0 -1 0 842)" d="M282.85 725.8274L325.6469 725.8274" stroke="#0000FE" stroke-width="0.6982422" fill="none" /></g><g clip-path="url(#12)"><path transform="matrix(1 0 0 -1 0 842)" d="M331.85 725.8274L374.6469 725.8274" stroke="#0000FE" stroke-width="0.6982422" fill="none" /></g><g clip-path="url(#13)"><path transform="matrix(1 0 0 -1 0 842)" d="M378.35 741L427.5938 741L427.5938 741L427.5938 724L427.5938 724L378.35 724z" stroke="none" fill="#CCD098" fill-rule="winding" fill-opacity="0" /></g><g clip-path="url(#14)"></g><g clip-path="url(#15)"><path transform="matrix(1 0 0 -1 0 842)" d="M231.35 724L280.35 724L280.35 724L280.35 707L280.35 707L231.35 707z" stroke="none" fill="#A8FEEF" fill-rule="winding" fill-opacity="0" /></g><g clip-path="url(#16)"><path transform="matrix(1 0 0 -1 0 842)" d="M282.85 708.8274L325.6469 708.8274" stroke="#0000FE" stroke-width="0.6982422" fill="none" /></g><g clip-path="url(#17)"><path transform="matrix(1 0 0 -1 0 842)" d="M331.85 708.8274L374.6469 708.8274" stroke="#0000FE" stroke-width="0.6982422" fill="none" /></g><g clip-path="url(#18)"><path transform="matrix(1 0 0 -1 0 842)" d="M378.35 724L427.5938 724L427.5938 724L427.5938 707L427.5938 707L378.35 707z" stroke="none" fill="#53DF96" fill-rule="winding" fill-opacity="0" /></g><g clip-path="url(#19)"></g><g clip-path="url(#20)"><path transform="matrix(1 0 0 -1 0 842)" d="M231.35 707L280.35 707L280.35 707L280.35 690L280.35 690L231.35 690z" stroke="none" fill="#A3C2C6" fill-rule="winding" fill-opacity="0" /></g><g clip-path="url(#21)"><path transform="matrix(1 0 0 -1 0 842)" d="M282.85 691.8274L325.6469 691.8274" stroke="#0000FE" stroke-width="0.6982422" fill="none" /></g><g clip-path="url(#22)"><path transform="matrix(1 0 0 -1 0 842)" d="M331.85 691.8274L374.6469 691.8274" stroke="#0000FE" stroke-width="0.6982422" fill="none" /></g><g clip-path="url(#23)"><path transform="matrix(1 0 0 -1 0 842)" d="M380.85 691.8274L423.5395 691.8274" stroke="#0000FE" stroke-width="0.6982422" fill="none" /></g><g clip-path="url(#24)"></g><g clip-path="url(#25)"><path transform="matrix(1 0 0 -1 0 842)" d="M231.35 690L280.35 690L280.35 690L280.35 673L280.35 673L231.35 673z" stroke="none" fill="#CB439A" fill-rule="winding" fill-opacity="0" /></g><g clip-path="url(#26)"><path transform="matrix(1 0 0 -1 0 842)" d="M282.85 674.8274L325.6469 674.8274" stroke="#0000FE" stroke-width="0.6982422" fill="none" /></g><g clip-path="url(#27)"><path transform="matrix(1 0 0 -1 0 842)" d="M331.85 674.8274L374.6469 674.8274" stroke="#0000FE" stroke-width="0.6982422" fill="none" /></g><g clip-path="url(#28)"><path transform="matrix(1 0 0 -1 0 842)" d="M380.85 674.8274L423.5395 674.8274" stroke="#0000FE" stroke-width="0.6982422" fill="none" /></g><g clip-path="url(#29)"></g><g clip-path="url(#30)"><path transform="matrix(1 0 0 -1 0 842)" d="M231.35 673L280.35 673L280.35 673L280.35 656L280.35 656L231.35 656z" stroke="none" fill="#782BCB" fill-rule="winding" fill-opacity="0" /><path transform="matrix(1 0 0 -1 0 842)" d="M280.35 673L329.35 673L329.35 673L329.35 656L329.35 656L280.35 656z" stroke="none" fill="#DDDFA9" fill-rule="winding" fill-opacity="0" /></g><g clip-path="url(#31)"><path transform="matrix(1 0 0 -1 0 842)" d="M331.85 657.8274L374.5395 657.8274" stroke="#0000FE" stroke-width="0.6982422" fill="none" /></g><g clip-path="url(#32)"><path transform="matrix(1 0 0 -1 0 842)" d="M380.85 657.8274L423.5395 657.8274" stroke="#0000FE" stroke-width="0.6982422" fill="none" /></g><g clip-path="url(#33)"></g><g clip-path="url(#34)"><path transform="matrix(1 0 0 -1 0 842)" d="M231.35 656L280.35 656L280.35 656L280.35 639L280.35 639L231.35 639z" stroke="none" fill="#699C98" fill-rule="winding" fill-opacity="0" /><path transform="matrix(1 0 0 -1 0 842)" d="M280.35 656L329.35 656L329.35 656L329.35 639L329.35 639L280.35 639z" stroke="none" fill="#A58926" fill-rule="winding" fill-opacity="0" /><path transform="matrix(1 0 0 -1 0 842)" d="M329.35 656L378.35 656L378.35 656L378.35 639L378.35 639L329.35 639z" stroke="none" fill="#9408B3" fill-rule="winding" fill-opacity="0" /></g><g clip-path="url(#35)"><path transform="matrix(1 0 0 -1 0 842)" d="M380.85 640.8274L423.5395 640.8274" stroke="#0000FE" stroke-width="0.6982422" fill="none" /></g><g clip-path="url(#36)"></g><g clip-path="url(#37)"><path transform="matrix(1 0 0 -1 0 842)" d="M231.35 639L280.35 639L280.35 639L280.35 622L280.35 622L231.35 622z" stroke="none" fill="#84D483" fill-rule="winding" fill-opacity="0" /><path transform="matrix(1 0 0 -1 0 842)" d="M280.35 639L329.35 639L329.35 639L329.35 622L329.35 622L280.35 622z" stroke="none" fill="#1D7D82" fill-rule="winding" fill-opacity="0" /><path transform="matrix(1 0 0 -1 0 842)" d="M329.35 639L378.35 639L378.35 639L378.35 622L378.35 622L329.35 622z" stroke="none" fill="#0CD062" fill-rule="winding" fill-opacity="0" /></g><g clip-path="url(#38)"><path transform="matrix(1 0 0 -1 0 842)" d="M380.85 623.8274L423.5395 623.8274" stroke="#0000FE" stroke-width="0.6982422" fill="none" /></g><g clip-path="url(#39)"><path transform="matrix(1 0 0 -1 0 842)" d="M231.35 786L231.35 770" stroke="#AAAAAA" stroke-width="1" fill="none" /><path transform="matrix(1 0 0 -1 0 842)" d="M231.35 770L231.35 741" stroke="#000000" stroke-width="1" fill="none" /><path transform="matrix(1 0 0 -1 0 842)" d="M231.35 741L231.35 724" stroke="#000000" stroke-width="1" fill="none" /><path transform="matrix(1 0 0 -1 0 842)" d="M231.35 724L231.35 621.5" stroke="#000000" stroke-width="1" fill="none" /><path transform="matrix(1 0 0 -1 0 842)" d="M280.35 786L280.35 770" stroke="#AAAAAA" stroke-width="1" fill="none" /><path transform="matrix(1 0 0 -1 0 842)" d="M280.35 770L280.35 741" stroke="#000000" stroke-width="1" fill="none" /><path transform="matrix(1 0 0 -1 0 842)" d="M280.35 741L280.35 724" stroke="#000000" stroke-width="1" fill="none" /><path transform="matrix(1 0 0 -1 0 842)" d="M280.35 724L280.35 707" stroke="#000000" stroke-width="1" fill="none" /><path transform="matrix(1 0 0 -1 0 842)" d="M280.35 707L280.35 690" stroke="#000000" stroke-width="1" fill="none" /><path transform="matrix(1 0 0 -1 0 842)" d="M280.35 690L280.35 673" stroke="#000000" stroke-width="1" fill="none" /><path transform="matrix(1 0 0 -1 0 842)" d="M280.35 673L280.35 621.5" stroke="#000000" stroke-width="1" fill="none" /><path transform="matrix(1 0 0 -1 0 842)" d="M329.35 786L329.35 770" stroke="#AAAAAA" stroke-width="1" fill="none" /><path transform="matrix(1 0 0 -1 0 842)" d="M329.35 770L329.35 741" stroke="#000000" stroke-width="1" fill="none" /><path transform="matrix(1 0 0 -1 0 842)" d="M329.35 741L329.35 724" stroke="#000000" stroke-width="1" fill="none" /><path transform="matrix(1 0 0 -1 0 842)" d="M329.35 724L329.35 707" stroke="#000000" stroke-width="1" fill="none" /><path transform="matrix(1 0 0 -1 0 842)" d="M329.35 707L329.35 690" stroke="#000000" stroke-width="1" fill="none" /><path transform="matrix(1 0 0 -1 0 842)" d="M329.35 690L329.35 673" stroke="#000000" stroke-width="1" fill="none" /><path transform="matrix(1 0 0 -1 0 842)" d="M329.35 673L329.35 656" stroke="#000000" stroke-width="1" fill="none" /><path transform="matrix(1 0 0 -1 0 842)" d="M329.35 656L329.35 621.5" stroke="#000000" stroke-width="1" fill="none" /><path transform="matrix(1 0 0 -1 0 842)" d="M378.35 786L378.35 770" stroke="#AAAAAA" stroke-width="1" fill="none" /><path transform="matrix(1 0 0 -1 0 842)" d="M378.35 770L378.35 741" stroke="#000000" stroke-width="1" fill="none" /><path transform="matrix(1 0 0 -1 0 842)" d="M378.35 741L378.35 724" stroke="#000000" stroke-width="1" fill="none" /><path transform="matrix(1 0 0 -1 0 842)" d="M378.35 724L378.35 707" stroke="#000000" stroke-width="1" fill="none" /><path transform="matrix(1 0 0 -1 0 842)" d="M378.35 707L378.35 690" stroke="#000000" stroke-width="1" fill="none" /><path transform="matrix(1 0 0 -1 0 842)" d="M378.35 690L378.35 673" stroke="#000000" stroke-width="1" fill="none" /><path transform="matrix(1 0 0 -1 0 842)" d="M378.35 673L378.35 656" stroke="#000000" stroke-width="1" fill="none" /><path transform="matrix(1 0 0 -1 0 842)" d="M378.35 656L378.35 639" stroke="#000000" stroke-width="1" fill="none" /><path transform="matrix(1 0 0 -1 0 842)" d="M378.35 639L378.35 621.5" stroke="#000000" stroke-width="1" fill="none" /><path transform="matrix(1 0 0 -1 0 842)" d="M49.85 786L378.35 786" stroke="#000000" stroke-width="1" fill="none" /><path transform="matrix(1 0 0 -1 0 842)" d="M378.35 786L428.0938 786" stroke="#000000" stroke-width="1" fill="none" /><path transform="matrix(1 0 0 -1 0 842)" d="M49.85 770L428.0938 770" stroke="#000000" stroke-width="1" fill="none" /><path transform="matrix(1 0 0 -1 0 842)" d="M49.85 741L231.35 741" stroke="#000000" stroke-width="1" fill="none" /><path transform="matrix(1 0 0 -1 0 842)" d="M231.35 741L280.35 741" stroke="#000000" stroke-width="1" fill="none" /><path transform="matrix(1 0 0 -1 0 842)" d="M280.35 741L329.35 741" stroke="#000000" stroke-width="1" fill="none" /><path transform="matrix(1 0 0 -1 0 842)" d="M329.35 741L378.35 741" stroke="#000000" stroke-width="1" fill="none" /><path transform="matrix(1 0 0 -1 0 842)" d="M378.35 741L428.0938 741" stroke="#000000" stroke-width="1" fill="none" /><path transform="matrix(1 0 0 -1 0 842)" d="M49.85 724L231.35 724" stroke="#000000" stroke-width="1" fill="none" /><path transform="matrix(1 0 0 -1 0 842)" d="M231.35 724L280.35 724" stroke="#000000" stroke-width="1" fill="none" /><path transform="matrix(1 0 0 -1 0 842)" d="M280.35 724L329.35 724" stroke="#000000" stroke-width="1" fill="none" /><path transform="matrix(1 0 0 -1 0 842)" d="M329.35 724L378.35 724" stroke="#000000" stroke-width="1" fill="none" /><path transform="matrix(1 0 0 -1 0 842)" d="M378.35 724L428.0938 724" stroke="#000000" stroke-width="1" fill="none" /><path transform="matrix(1 0 0 -1 0 842)" d="M49.85 707L280.35 707" stroke="#000000" stroke-width="1" fill="none" /><path transform="matrix(1 0 0 -1 0 842)" d="M280.35 707L329.35 707" stroke="#000000" stroke-width="1" fill="none" /><path transform="matrix(1 0 0 -1 0 842)" d="M329.35 707L378.35 707" stroke="#000000" stroke-width="1" fill="none" /><path transform="matrix(1 0 0 -1 0 842)" d="M378.35 707L428.0938 707" stroke="#000000" stroke-width="1" fill="none" /><path transform="matrix(1 0 0 -1 0 842)" d="M49.85 690L280.35 690" stroke="#000000" stroke-width="1" fill="none" /><path transform="matrix(1 0 0 -1 0 842)" d="M280.35 690L329.35 690" stroke="#000000" stroke-width="1" fill="none" /><path transform="matrix(1 0 0 -1 0 842)" d="M329.35 690L378.35 690" stroke="#000000" stroke-width="1" fill="none" /><path transform="matrix(1 0 0 -1 0 842)" d="M378.35 690L428.0938 690" stroke="#000000" stroke-width="1" fill="none" /><path transform="matrix(1 0 0 -1 0 842)" d="M49.85 673L280.35 673" stroke="#000000" stroke-width="1" fill="none" /><path transform="matrix(1 0 0 -1 0 842)" d="M280.35 673L329.35 673" stroke="#000000" stroke-width="1" fill="none" /><path transform="matrix(1 0 0 -1 0 842)" d="M329.35 673L378.35 673" stroke="#000000" stroke-width="1" fill="none" /><path transform="matrix(1 0 0 -1 0 842)" d="M378.35 673L428.0938 673" stroke="#000000" stroke-width="1" fill="none" /><path transform="matrix(1 0 0 -1 0 842)" d="M49.85 656L329.35 656" stroke="#000000" stroke-width="1" fill="none" /><path transform="matrix(1 0 0 -1 0 842)" d="M329.35 656L378.35 656" stroke="#000000" stroke-width="1" fill="none" /><path transform="matrix(1 0 0 -1 0 842)" d="M378.35 656L428.0938 656" stroke="#000000" stroke-width="1" fill="none" /><path transform="matrix(1 0 0 -1 0 842)" d="M49.85 639L378.35 639" stroke="#000000" stroke-width="1" fill="none" /><path transform="matrix(1 0 0 -1 0 842)" d="M378.35 639L428.0938 639" stroke="#000000" stroke-width="1" fill="none" /><path transform="matrix(1 0 0 -1 0 842)" d="M50.35 786L50.35 770" stroke="#AAAAAA" stroke-width="1" fill="none" /><path transform="matrix(1 0 0 -1 0 842)" d="M50.35 770L50.35 621.5" stroke="#000000" stroke-width="1" fill="none" /><path transform="matrix(1 0 0 -1 0 842)" d="M427.5938 786L427.5938 770" stroke="#AAAAAA" stroke-width="1" fill="none" /><path transform="matrix(1 0 0 -1 0 842)" d="M427.5938 770L427.5938 707" stroke="#000000" stroke-width="1" fill="none" /><path transform="matrix(1 0 0 -1 0 842)" d="M427.5938 707L427.5938 690" stroke="#000000" stroke-width="1" fill="none" /><path transform="matrix(1 0 0 -1 0 842)" d="M427.5938 690L427.5938 673" stroke="#000000" stroke-width="1" fill="none" /><path transform="matrix(1 0 0 -1 0 842)" d="M427.5938 673L427.5938 656" stroke="#000000" stroke-width="1" fill="none" /><path transform="matrix(1 0 0 -1 0 842)" d="M427.5938 656L427.5938 639" stroke="#000000" stroke-width="1" fill="none" /><path transform="matrix(1 0 0 -1 0 842)" d="M427.5938 639L427.5938 621.5" stroke="#000000" stroke-width="1" fill="none" /><path transform="matrix(1 0 0 -1 0 842)" d="M49.85 622L378.35 622" stroke="#000000" stroke-width="1" fill="none" /><path transform="matrix(1 0 0 -1 0 842)" d="M378.35 622L428.0938 622" stroke="#000000" stroke-width="1" fill="none" /></g><g clip-path="url(#40)"></g></g></g></g></svg>